999
dxfrw 0.6.3
  0
SECTION
  2
HEADER
  9
$ACADVER
  1
AC1021
  9
$DWGCODEPAGE
  3
ANSI_1252
  9
$INSBASE
 10
0
 20
0
 30
0
  9
$EXTMIN
 10
-2.842170943040401e-14
 20
-1.332267629550188e-14
 30
0
  9
$EXTMAX
 10
93.14540000000001
 20
167.6638
 30
0
  9
$LIMMIN
 10
0
 20
0
  9
$LIMMAX
 10
420
 20
297
  9
$ORTHOMODE
 70
    0
  9
$REGENMODE
 70
    1
  9
$FILLMODE
 70
    1
  9
$QTEXTMODE
 70
    0
  9
$MIRRTEXT
 70
    0
  9
$LTSCALE
 40
1
  9
$ATTMODE
 70
    0
  9
$TEXTSIZE
 40
2.5
  9
$TRACEWID
 40
15.68
  9
$TEXTSTYLE
  7
STANDARD
  9
$CLAYER
  8
0
  9
$CELTYPE
  6
BYLAYER
  9
$CECOLOR
 62
  256
  9
$CELTSCALE
 40
1
  9
$DISPSILH
 70
    0
  9
$DIMSCALE
 40
1
  9
$DIMASZ
 40
2.5
  9
$DIMEXO
 40
0.625
  9
$DIMDLI
 40
3.75
  9
$DIMRND
 40
0
  9
$DIMDLE
 40
0
  9
$DIMEXE
 40
1.25
  9
$DIMTP
 40
0
  9
$DIMTM
 40
0
  9
$DIMTXT
 40
2.5
  9
$DIMCEN
 40
2.5
  9
$DIMTSZ
 40
0
  9
$DIMTOL
 70
    0
  9
$DIMLIM
 70
    0
  9
$DIMTIH
 70
    0
  9
$DIMTOH
 70
    0
  9
$DIMSE1
 70
    0
  9
$DIMSE2
 70
    0
  9
$DIMTAD
 70
    1
  9
$DIMZIN
 70
    8
  9
$DIMBLK
  1

  9
$DIMASO
 70
    1
  9
$DIMSHO
 70
    1
  9
$DIMPOST
  1

  9
$DIMAPOST
  1

  9
$DIMALT
 70
    0
  9
$DIMALTD
 70
    3
  9
$DIMALTF
 40
0.03937
  9
$DIMLFAC
 40
1
  9
$DIMTOFL
 70
    1
  9
$DIMTVP
 40
0
  9
$DIMTIX
 70
    0
  9
$DIMSOXD
 70
    0
  9
$DIMSAH
 70
    0
  9
$DIMBLK1
  1

  9
$DIMBLK2
  1

  9
$DIMSTYLE
  2
STANDARD
  9
$DIMCLRD
 70
    0
  9
$DIMCLRE
 70
    0
  9
$DIMCLRT
 70
    0
  9
$DIMTFAC
 40
1
  9
$DIMGAP
 40
0.625
  9
$DIMJUST
 70
    0
  9
$DIMSD1
 70
    0
  9
$DIMSD2
 70
    0
  9
$DIMTOLJ
 70
    0
  9
$DIMTZIN
 70
    8
  9
$DIMALTZ
 70
    0
  9
$DIMALTTZ
 70
    0
  9
$DIMUPT
 70
    0
  9
$DIMDEC
 70
    2
  9
$DIMTDEC
 70
    2
  9
$DIMALTU
 70
    2
  9
$DIMALTTD
 70
    3
  9
$DIMTXSTY
  7
standard
  9
$DIMAUNIT
 70
    0
  9
$DIMADEC
 70
    0
  9
$DIMALTRND
 40
0
  9
$DIMAZIN
 70
    0
  9
$DIMDSEP
 70
   44
  9
$DIMATFIT
 70
    3
  9
$DIMFRAC
 70
    0
  9
$DIMLDRBLK
  1
STANDARD
  9
$DIMLUNIT
 70
    2
  9
$DIMLWD
 70
   -2
  9
$DIMLWE
 70
   -2
  9
$DIMTMOVE
 70
    0
  9
$DIMFXL
 40
1
  9
$DIMFXLON
 70
    0
  9
$DIMJOGANG
 40
0.7854
  9
$DIMTFILL
 70
    0
  9
$DIMTFILLCLR
 70
    0
  9
$DIMARCSYM
 70
    0
  9
$DIMLTYPE
  6

  9
$DIMLTEX1
  6

  9
$DIMLTEX2
  6

  9
$LUNITS
 70
    2
  9
$LUPREC
 70
    4
  9
$SKETCHINC
 40
1
  9
$FILLETRAD
 40
0
  9
$AUNITS
 70
    0
  9
$AUPREC
 70
    2
  9
$MENU
  1
.
  9
$ELEVATION
 40
0
  9
$PELEVATION
 40
0
  9
$THICKNESS
 40
0
  9
$LIMCHECK
 70
    0
  9
$CHAMFERA
 40
0
  9
$CHAMFERB
 40
0
  9
$CHAMFERC
 40
0
  9
$CHAMFERD
 40
0
  9
$SKPOLY
 70
    0
  9
$USRTIMER
 70
    1
  9
$ANGBASE
 50
0
  9
$ANGDIR
 70
    0
  9
$PDMODE
 70
   34
  9
$PDSIZE
 40
0
  9
$PLINEWID
 40
0
  9
$SPLFRAME
 70
    0
  9
$SPLINETYPE
 70
    2
  9
$SPLINESEGS
 70
    8
  9
$HANDSEED
  5
20000
  9
$SURFTAB1
 70
    6
  9
$SURFTAB2
 70
    6
  9
$SURFTYPE
 70
    6
  9
$SURFU
 70
    6
  9
$SURFV
 70
    6
  9
$UCSBASE
  2

  9
$UCSNAME
  2

  9
$UCSORG
 10
0
 20
0
 30
0
  9
$UCSXDIR
 10
1
 20
0
 30
0
  9
$UCSYDIR
 10
0
 20
1
 30
0
  9
$UCSORTHOREF
  2

  9
$UCSORTHOVIEW
 70
    0
  9
$UCSORGTOP
 10
0
 20
0
 30
0
  9
$UCSORGBOTTOM
 10
0
 20
0
 30
0
  9
$UCSORGLEFT
 10
0
 20
0
 30
0
  9
$UCSORGRIGHT
 10
0
 20
0
 30
0
  9
$UCSORGFRONT
 10
0
 20
0
 30
0
  9
$UCSORGBACK
 10
0
 20
0
 30
0
  9
$PUCSBASE
  2

  9
$PUCSNAME
  2

  9
$PUCSORG
 10
0
 20
0
 30
0
  9
$PUCSXDIR
 10
1
 20
0
 30
0
  9
$PUCSYDIR
 10
0
 20
1
 30
0
  9
$PUCSORTHOREF
  2

  9
$PUCSORTHOVIEW
 70
    0
  9
$PUCSORGTOP
 10
0
 20
0
 30
0
  9
$PUCSORGBOTTOM
 10
0
 20
0
 30
0
  9
$PUCSORGLEFT
 10
0
 20
0
 30
0
  9
$PUCSORGRIGHT
 10
0
 20
0
 30
0
  9
$PUCSORGFRONT
 10
0
 20
0
 30
0
  9
$PUCSORGBACK
 10
0
 20
0
 30
0
  9
$USERI1
 70
    0
  9
$USERI2
 70
    0
  9
$USERI3
 70
    0
  9
$USERI4
 70
    0
  9
$USERI5
 70
    0
  9
$USERR1
 40
0
  9
$USERR2
 40
0
  9
$USERR3
 40
0
  9
$USERR4
 40
0
  9
$USERR5
 40
0
  9
$WORLDVIEW
 70
    1
  9
$SHADEDGE
 70
    3
  9
$SHADEDIF
 70
   70
  9
$TILEMODE
 70
    1
  9
$MAXACTVP
 70
   64
  9
$PINSBASE
 10
0
 20
0
 30
0
  9
$PLIMCHECK
 70
    0
  9
$PEXTMIN
 10
0
 20
0
 30
0
  9
$PEXTMAX
 10
0
 20
0
 30
0
  9
$GRIDMODE
 70
    1
  9
$SNAPSTYLE
 70
    0
  9
$GRIDUNIT
 10
0
 20
0
  9
$PLIMMIN
 10
0
 20
0
  9
$PLIMMAX
 10
210
 20
297
  9
$UNITMODE
 70
    0
  9
$VISRETAIN
 70
    1
  9
$PLINEGEN
 70
    0
  9
$PSLTSCALE
 70
    1
  9
$TREEDEPTH
 70
 3020
  9
$CMLSTYLE
  2
Standard
  9
$CMLJUST
 70
    0
  9
$CMLSCALE
 40
20
  9
$PROXYGRAPHICS
 70
    1
  9
$MEASUREMENT
 70
    1
  9
$CELWEIGHT
370
   -1
  9
$ENDCAPS
280
    0
  9
$JOINSTYLE
280
    0
  9
$LWDISPLAY
290
    0
  9
$INSUNITS
 70
    4
  9
$HYPERLINKBASE
  1

  9
$STYLESHEET
  1

  9
$XEDIT
290
    1
  9
$CEPSNTYPE
380
    0
  9
$PSTYLEMODE
290
    1
  9
$EXTNAMES
290
    1
  9
$PSVPSCALE
 40
1
  9
$OLESTARTUP
290
    0
  9
$SORTENTS
280
  127
  9
$INDEXCTL
280
    0
  9
$HIDETEXT
280
    1
  9
$XCLIPFRAME
290
    0
  9
$HALOGAP
280
    0
  9
$OBSCOLOR
 70
  257
  9
$OBSLTYPE
280
    0
  9
$INTERSECTIONDISPLAY
280
    0
  9
$INTERSECTIONCOLOR
 70
  257
  9
$DIMASSOC
280
    1
  9
$PROJECTNAME
  1

  9
$CAMERADISPLAY
290
    0
  9
$LENSLENGTH
 40
50
  9
$CAMERAHEIGHT
 40
0
  9
$STEPSPERSEC
 40
2
  9
$STEPSIZE
 40
50
  9
$3DDWFPREC
 40
2
  9
$PSOLWIDTH
 40
5
  9
$PSOLHEIGHT
 40
80
  9
$LOFTANG1
 40
1.570796326794897
  9
$LOFTANG2
 40
1.570796326794897
  9
$LOFTMAG1
 40
0
  9
$LOFTMAG2
 40
0
  9
$LOFTPARAM
 70
    7
  9
$LOFTNORMALS
280
    1
  9
$LATITUDE
 40
1
  9
$LONGITUDE
 40
1
  9
$NORTHDIRECTION
 40
0
  9
$TIMEZONE
 70
-8000
  9
$LIGHTGLYPHDISPLAY
280
    1
  9
$TILEMODELIGHTSYNCH
280
    1
  9
$SOLIDHIST
280
    1
  9
$SHOWHIST
280
    1
  9
$DWFFRAME
280
    2
  9
$DGNFRAME
280
    0
  9
$REALWORLDSCALE
290
    1
  9
$INTERFERECOLOR
 62
    1
  9
$CSHADOW
280
    0
  9
$SHADOWPLANELOCATION
 40
0
  0
ENDSEC
  0
SECTION
  2
CLASSES
  0
ENDSEC
  0
SECTION
  2
TABLES
  0
TABLE
  2
VPORT
  5
8
330
0
100
AcDbSymbolTable
 70
    1
  0
VPORT
  5
31
330
2
100
AcDbSymbolTableRecord
100
AcDbViewportTableRecord
  2
*ACTIVE
 70
    0
 10
0
 20
0
 11
1
 21
1
 12
83.71807528852682
 22
84.40102355736592
 13
0
 23
0
 14
10
 24
10
 15
10
 25
10
 16
0
 26
0
 36
1
 17
0
 27
0
 37
0
 40
169.9402942294637
 41
1.421969189551239
 42
50
 43
0
 44
0
 50
0
 51
0
 71
    0
 72
  100
 73
    1
 74
    3
 75
    0
 76
    1
 77
    0
 78
    0
281
    0
 65
    1
110
0
120
0
130
0
111
1
121
0
131
0
112
0
122
1
132
0
 79
    0
146
0
348
10020
 60
    7
 61
    5
292
1
282
    1
141
0
142
0
 63
  250
421
3358443
  0
ENDTAB
  0
TABLE
  2
LTYPE
  5
5
330
0
100
AcDbSymbolTable
 70
    4
  0
LTYPE
  5
14
330
5
100
AcDbSymbolTableRecord
100
AcDbLinetypeTableRecord
  2
ByBlock
 70
    0
  3

 72
   65
 73
    0
 40
0
  0
LTYPE
  5
15
330
5
100
AcDbSymbolTableRecord
100
AcDbLinetypeTableRecord
  2
ByLayer
 70
    0
  3

 72
   65
 73
    0
 40
0
  0
LTYPE
  5
16
330
5
100
AcDbSymbolTableRecord
100
AcDbLinetypeTableRecord
  2
Continuous
 70
    0
  3
Solid line
 72
   65
 73
    0
 40
0
  0
LTYPE
  5
32
330
5
100
AcDbSymbolTableRecord
100
AcDbLinetypeTableRecord
  2
DOT
 70
    0
  3
Dot . . . . . . . . . . . . . . . . . . . . . .
 72
   65
 73
    2
 40
6.35
 49
0
 74
    0
 49
-6.35
 74
    0
  0
LTYPE
  5
33
330
5
100
AcDbSymbolTableRecord
100
AcDbLinetypeTableRecord
  2
DOTTINY
 70
    0
  3
Dot (.15x) .....................................
 72
   65
 73
    2
 40
0.9525
 49
0
 74
    0
 49
-0.9525
 74
    0
  0
LTYPE
  5
34
330
5
100
AcDbSymbolTableRecord
100
AcDbLinetypeTableRecord
  2
DOT2
 70
    0
  3
Dot (.5x) .....................................
 72
   65
 73
    2
 40
3.175
 49
0
 74
    0
 49
-3.175
 74
    0
  0
LTYPE
  5
35
330
5
100
AcDbSymbolTableRecord
100
AcDbLinetypeTableRecord
  2
DOTX2
 70
    0
  3
Dot (2x) .  .  .  .  .  .  .  .  .  .  .  .  .
 72
   65
 73
    2
 40
12.7
 49
0
 74
    0
 49
-12.7
 74
    0
  0
LTYPE
  5
36
330
5
100
AcDbSymbolTableRecord
100
AcDbLinetypeTableRecord
  2
DASHED
 70
    0
  3
Dashed _ _ _ _ _ _ _ _ _ _ _ _ _ _ _ _ _
 72
   65
 73
    2
 40
19.05
 49
12.7
 74
    0
 49
-6.35
 74
    0
  0
LTYPE
  5
37
330
5
100
AcDbSymbolTableRecord
100
AcDbLinetypeTableRecord
  2
DASHEDTINY
 70
    0
  3
Dashed (.15x) _ _ _ _ _ _ _ _ _ _ _ _ _ _ _ _ _
 72
   65
 73
    2
 40
2.8575
 49
1.905
 74
    0
 49
-0.9525
 74
    0
  0
LTYPE
  5
38
330
5
100
AcDbSymbolTableRecord
100
AcDbLinetypeTableRecord
  2
DASHED2
 70
    0
  3
Dashed (.5x) _ _ _ _ _ _ _ _ _ _ _ _ _ _ _ _ _
 72
   65
 73
    2
 40
9.524999999999999
 49
6.35
 74
    0
 49
-3.175
 74
    0
  0
LTYPE
  5
39
330
5
100
AcDbSymbolTableRecord
100
AcDbLinetypeTableRecord
  2
DASHEDX2
 70
    0
  3
Dashed (2x) ____  ____  ____  ____  ____  ___
 72
   65
 73
    2
 40
38.09999999999999
 49
25.4
 74
    0
 49
-12.7
 74
    0
  0
LTYPE
  5
3A
330
5
100
AcDbSymbolTableRecord
100
AcDbLinetypeTableRecord
  2
DASHDOT
 70
    0
  3
Dash dot __ . __ . __ . __ . __ . __ . __ . __
 72
   65
 73
    4
 40
25.4
 49
12.7
 74
    0
 49
-6.35
 74
    0
 49
0
 74
    0
 49
-6.35
 74
    0
  0
LTYPE
  5
3B
330
5
100
AcDbSymbolTableRecord
100
AcDbLinetypeTableRecord
  2
DASHDOTTINY
 70
    0
  3
Dash dot (.15x) _._._._._._._._._._._._._._._.
 72
   65
 73
    4
 40
3.81
 49
1.905
 74
    0
 49
-0.9525
 74
    0
 49
0
 74
    0
 49
-0.9525
 74
    0
  0
LTYPE
  5
3C
330
5
100
AcDbSymbolTableRecord
100
AcDbLinetypeTableRecord
  2
DASHDOT2
 70
    0
  3
Dash dot (.5x) _._._._._._._._._._._._._._._.
 72
   65
 73
    4
 40
12.7
 49
6.35
 74
    0
 49
-3.175
 74
    0
 49
0
 74
    0
 49
-3.175
 74
    0
  0
LTYPE
  5
3D
330
5
100
AcDbSymbolTableRecord
100
AcDbLinetypeTableRecord
  2
DASHDOTX2
 70
    0
  3
Dash dot (2x) ____  .  ____  .  ____  .  ___
 72
   65
 73
    4
 40
50.8
 49
25.4
 74
    0
 49
-12.7
 74
    0
 49
0
 74
    0
 49
-12.7
 74
    0
  0
LTYPE
  5
3E
330
5
100
AcDbSymbolTableRecord
100
AcDbLinetypeTableRecord
  2
DIVIDE
 70
    0
  3
Divide ____ . . ____ . . ____ . . ____ . . ____
 72
   65
 73
    6
 40
31.75
 49
12.7
 74
    0
 49
-6.35
 74
    0
 49
0
 74
    0
 49
-6.35
 74
    0
 49
0
 74
    0
 49
-6.35
 74
    0
  0
LTYPE
  5
3F
330
5
100
AcDbSymbolTableRecord
100
AcDbLinetypeTableRecord
  2
DIVIDETINY
 70
    0
  3
Divide (.15x) __..__..__..__..__..__..__..__.._
 72
   65
 73
    6
 40
4.7625
 49
1.905
 74
    0
 49
-0.9525
 74
    0
 49
0
 74
    0
 49
-0.9525
 74
    0
 49
0
 74
    0
 49
-0.9525
 74
    0
  0
LTYPE
  5
40
330
5
100
AcDbSymbolTableRecord
100
AcDbLinetypeTableRecord
  2
DIVIDE2
 70
    0
  3
Divide (.5x) __..__..__..__..__..__..__..__.._
 72
   65
 73
    6
 40
15.875
 49
6.35
 74
    0
 49
-3.175
 74
    0
 49
0
 74
    0
 49
-3.175
 74
    0
 49
0
 74
    0
 49
-3.175
 74
    0
  0
LTYPE
  5
41
330
5
100
AcDbSymbolTableRecord
100
AcDbLinetypeTableRecord
  2
DIVIDEX2
 70
    0
  3
Divide (2x) ________  .  .  ________  .  .  _
 72
   65
 73
    6
 40
63.5
 49
25.4
 74
    0
 49
-12.7
 74
    0
 49
0
 74
    0
 49
-12.7
 74
    0
 49
0
 74
    0
 49
-12.7
 74
    0
  0
LTYPE
  5
42
330
5
100
AcDbSymbolTableRecord
100
AcDbLinetypeTableRecord
  2
BORDER
 70
    0
  3
Border __ __ . __ __ . __ __ . __ __ . __ __ .
 72
   65
 73
    6
 40
44.45
 49
12.7
 74
    0
 49
-6.35
 74
    0
 49
12.7
 74
    0
 49
-6.35
 74
    0
 49
0
 74
    0
 49
-6.35
 74
    0
  0
LTYPE
  5
43
330
5
100
AcDbSymbolTableRecord
100
AcDbLinetypeTableRecord
  2
BORDERTINY
 70
    0
  3
Border (.15x) __.__.__.__.__.__.__.__.__.__.__.
 72
   65
 73
    6
 40
6.6675
 49
1.905
 74
    0
 49
-0.9525
 74
    0
 49
1.905
 74
    0
 49
-0.9525
 74
    0
 49
0
 74
    0
 49
-0.9525
 74
    0
  0
LTYPE
  5
44
330
5
100
AcDbSymbolTableRecord
100
AcDbLinetypeTableRecord
  2
BORDER2
 70
    0
  3
Border (.5x) __.__.__.__.__.__.__.__.__.__.__.
 72
   65
 73
    6
 40
22.225
 49
6.35
 74
    0
 49
-3.175
 74
    0
 49
6.35
 74
    0
 49
-3.175
 74
    0
 49
0
 74
    0
 49
-3.175
 74
    0
  0
LTYPE
  5
45
330
5
100
AcDbSymbolTableRecord
100
AcDbLinetypeTableRecord
  2
BORDERX2
 70
    0
  3
Border (2x) ____  ____  .  ____  ____  .  ___
 72
   65
 73
    6
 40
88.89999999999999
 49
25.4
 74
    0
 49
-12.7
 74
    0
 49
25.4
 74
    0
 49
-12.7
 74
    0
 49
0
 74
    0
 49
-12.7
 74
    0
  0
LTYPE
  5
46
330
5
100
AcDbSymbolTableRecord
100
AcDbLinetypeTableRecord
  2
CENTER
 70
    0
  3
Center ____ _ ____ _ ____ _ ____ _ ____ _ ____
 72
   65
 73
    4
 40
50.8
 49
31.75
 74
    0
 49
-6.35
 74
    0
 49
6.35
 74
    0
 49
-6.35
 74
    0
  0
LTYPE
  5
47
330
5
100
AcDbSymbolTableRecord
100
AcDbLinetypeTableRecord
  2
CENTERTINY
 70
    0
  3
Center (.15x) ___ _ ___ _ ___ _ ___ _ ___ _ ___
 72
   65
 73
    4
 40
7.619999999999999
 49
4.7625
 74
    0
 49
-0.9525
 74
    0
 49
0.9525
 74
    0
 49
-0.9525
 74
    0
  0
LTYPE
  5
48
330
5
100
AcDbSymbolTableRecord
100
AcDbLinetypeTableRecord
  2
CENTER2
 70
    0
  3
Center (.5x) ___ _ ___ _ ___ _ ___ _ ___ _ ___
 72
   65
 73
    4
 40
28.575
 49
19.05
 74
    0
 49
-3.175
 74
    0
 49
3.175
 74
    0
 49
-3.175
 74
    0
  0
LTYPE
  5
49
330
5
100
AcDbSymbolTableRecord
100
AcDbLinetypeTableRecord
  2
CENTERX2
 70
    0
  3
Center (2x) ________  __  ________  __  _____
 72
   65
 73
    4
 40
101.6
 49
63.5
 74
    0
 49
-12.7
 74
    0
 49
12.7
 74
    0
 49
-12.7
 74
    0
  0
ENDTAB
  0
TABLE
  2
LAYER
  5
2
330
0
100
AcDbSymbolTable
 70
    1
  0
LAYER
  5
10
330
2
100
AcDbSymbolTableRecord
100
AcDbLayerTableRecord
  2
0
 70
    5
 62
    7
  6
CONTINUOUS
370
    0
390
F
  0
LAYER
  5
4A
330
2
100
AcDbSymbolTableRecord
100
AcDbLayerTableRecord
  2
00 / PCIe Card / PCB
 70
    4
 62
    3
  6
CONTINUOUS
370
    0
390
F
  0
LAYER
  5
4B
330
2
100
AcDbSymbolTableRecord
100
AcDbLayerTableRecord
  2
01 / PCIe Card / Bracket
 70
    4
 62
  141
420
9031664
  6
CONTINUOUS
370
    0
390
F
  0
LAYER
  5
4C
330
2
100
AcDbSymbolTableRecord
100
AcDbLayerTableRecord
  2
02 / PCIe Card / Bracket (Top)
 70
    4
 62
  141
420
9031664
  6
DASHEDTINY
370
    0
390
F
  0
LAYER
  5
4D
330
2
100
AcDbSymbolTableRecord
100
AcDbLayerTableRecord
  2
10 / West Cove Board / PCB
 70
    4
 62
    3
  6
CONTINUOUS
370
    0
390
F
  0
LAYER
  5
4E
330
2
100
AcDbSymbolTableRecord
100
AcDbLayerTableRecord
  2
11 / West Cove Board / PCIe Slot
 70
    4
 62
  231
420
16758465
  6
CONTINUOUS
370
    0
390
F
  0
LAYER
  5
4F
330
2
100
AcDbSymbolTableRecord
100
AcDbLayerTableRecord
  2
20 - Back Panel
 70
    4
 62
    2
  6
CONTINUOUS
370
    0
390
F
  0
LAYER
  5
50
330
2
100
AcDbSymbolTableRecord
100
AcDbLayerTableRecord
  2
21 - Back Panel / Cutouts
 70
    4
 62
    2
  6
CONTINUOUS
370
    0
390
F
  0
LAYER
  5
51
330
2
100
AcDbSymbolTableRecord
100
AcDbLayerTableRecord
  2
22 - Back Panel / Power Button Cutouts
 70
    4
 62
    2
  6
CONTINUOUS
370
    0
390
F
  0
LAYER
  5
52
330
2
100
AcDbSymbolTableRecord
100
AcDbLayerTableRecord
  2
23 - Back Panel / Power Plug Cutouts
 70
    4
 62
    2
  6
CONTINUOUS
370
    0
390
F
  0
LAYER
  5
53
330
2
100
AcDbSymbolTableRecord
100
AcDbLayerTableRecord
  2
24 - Back Panel / MakerBeam Cutouts
 70
    4
 62
    2
  6
CONTINUOUS
370
    0
390
F
  0
LAYER
  5
54
330
2
100
AcDbSymbolTableRecord
100
AcDbLayerTableRecord
  2
25 - Back Panel / Screw Holes
 70
    4
 62
    2
  6
CONTINUOUS
370
    0
390
F
  0
LAYER
  5
55
330
2
100
AcDbSymbolTableRecord
100
AcDbLayerTableRecord
  2
99 / Hardware
 70
    4
 62
    6
  6
CONTINUOUS
370
    0
390
F
  0
ENDTAB
  0
TABLE
  2
STYLE
  5
3
330
0
100
AcDbSymbolTable
 70
    3
  0
STYLE
  5
56
330
2
100
AcDbSymbolTableRecord
100
AcDbTextStyleTableRecord
  2
Standard
 70
    0
 40
0
 41
1
 50
0
 71
    0
 42
1
  3
txt
  4

  0
ENDTAB
  0
TABLE
  2
VIEW
  5
6
330
0
100
AcDbSymbolTable
 70
    0
  0
ENDTAB
  0
TABLE
  2
UCS
  5
7
330
0
100
AcDbSymbolTable
 70
    0
  0
ENDTAB
  0
TABLE
  2
APPID
  5
9
330
0
100
AcDbSymbolTable
 70
    1
  0
APPID
  5
12
330
9
100
AcDbSymbolTableRecord
100
AcDbRegAppTableRecord
  2
ACAD
 70
    0
  0
APPID
  5
57
330
9
100
AcDbSymbolTableRecord
100
AcDbRegAppTableRecord
  2
LibreCad
 70
    0
  0
ENDTAB
  0
TABLE
  2
DIMSTYLE
  5
A
330
0
100
AcDbSymbolTable
 70
    1
100
AcDbDimStyleTable
 71
    1
  0
DIMSTYLE
105
58
330
A
100
AcDbSymbolTableRecord
100
AcDbDimStyleTableRecord
  2
Standard
 70
    0
 40
1
 41
2.5
 42
0.625
 43
0.38
 44
1.25
 45
0
 46
0
 47
0
 48
0
 49
1
140
2.5
141
0.09
142
0
143
25.4
144
1
145
0
146
1
147
0.625
148
0
 71
    0
 72
    0
 73
    0
 74
    1
 75
    0
 76
    0
 77
    0
 78
    8
 79
    0
170
    0
171
    2
172
    0
173
    0
174
    0
175
    0
176
    0
177
    0
178
    0
179
    0
271
    2
272
    4
273
    2
274
    2
275
    0
276
    0
277
    2
278
   44
279
    0
280
    0
281
    0
282
    0
283
    1
284
    0
285
    0
286
    0
288
    0
289
    3
340
standard
341

371
   -2
372
   -2
  0
ENDTAB
  0
TABLE
  2
BLOCK_RECORD
  5
1
330
0
100
AcDbSymbolTable
 70
    2
  0
BLOCK_RECORD
  5
1F
330
1
100
AcDbSymbolTableRecord
100
AcDbBlockTableRecord
  2
*Model_Space
 70
    0
280
    1
281
    0
  0
BLOCK_RECORD
  5
1E
330
1
100
AcDbSymbolTableRecord
100
AcDbBlockTableRecord
  2
*Paper_Space
 70
    0
280
    1
281
    0
  0
ENDTAB
  0
ENDSEC
  0
SECTION
  2
BLOCKS
  0
BLOCK
  5
20
330
1F
100
AcDbEntity
  8
0
100
AcDbBlockBegin
  2
*Model_Space
 70
    0
 10
0
 20
0
 30
0
  3
*Model_Space
  1

  0
ENDBLK
  5
21
330
1F
100
AcDbEntity
  8
0
100
AcDbBlockEnd
  0
BLOCK
  5
1C
330
1B
100
AcDbEntity
  8
0
100
AcDbBlockBegin
  2
*Paper_Space
 70
    0
 10
0
 20
0
 30
0
  3
*Paper_Space
  1

  0
ENDBLK
  5
1D
330
1F
100
AcDbEntity
  8
0
100
AcDbBlockEnd
  0
ENDSEC
  0
SECTION
  2
ENTITIES
  0
HATCH
  5
59
100
AcDbEntity
  8
21 - Back Panel / Cutouts
  6
ByLayer
 62
  256
370
   -1
100
AcDbHatch
 10
0
 20
0
 30
0
210
0
220
0
230
1
  2
ansi31
 70
    0
 71
    0
 91
    1
 92
    0
 93
    4
 72
    1
 10
84.08520000000001
 20
25.46440000000001
 11
49.7002
 21
25.46440000000001
 72
    1
 10
49.7002
 20
25.46440000000001
 11
49.7002
 21
117.355
 72
    1
 10
49.7002
 20
117.355
 11
84.08520000000001
 21
117.355
 72
    1
 10
84.08520000000001
 20
117.355
 11
84.08520000000001
 21
25.46440000000001
 97
    0
 75
    0
 76
    1
 52
1.570796326794897
 41
0.66
 77
    0
 78
    0
 98
    0
  0
HATCH
  5
5A
100
AcDbEntity
  8
21 - Back Panel / Cutouts
  6
ByLayer
 62
  256
370
   -1
100
AcDbHatch
 10
0
 20
0
 30
0
210
0
220
0
230
1
  2
ansi31
 70
    0
 71
    0
 91
    1
 92
    0
 93
    4
 72
    1
 10
43.4452
 20
25.46440000000001
 11
29.3802
 21
25.46440000000001
 72
    1
 10
29.3802
 20
25.46440000000001
 11
29.3802
 21
117.355
 72
    1
 10
29.3802
 20
117.355
 11
43.4452
 21
117.355
 72
    1
 10
43.4452
 20
117.355
 11
43.4452
 21
25.46440000000001
 97
    0
 75
    0
 76
    1
 52
1.570796326794897
 41
0.66
 77
    0
 78
    0
 98
    0
  0
HATCH
  5
5B
100
AcDbEntity
  8
21 - Back Panel / Cutouts
  6
ByLayer
 62
  256
370
   -1
100
AcDbHatch
 10
0
 20
0
 30
0
210
0
220
0
230
1
  2
ansi31
 70
    0
 71
    0
 91
    1
 92
    0
 93
    4
 72
    1
 10
23.1252
 20
25.46440000000001
 11
9.060199999999996
 21
25.46440000000001
 72
    1
 10
9.060199999999996
 20
25.46440000000001
 11
9.060199999999996
 21
117.355
 72
    1
 10
9.060199999999996
 20
117.355
 11
23.1252
 21
117.355
 72
    1
 10
23.1252
 20
117.355
 11
23.1252
 21
25.46440000000001
 97
    0
 75
    0
 76
    1
 52
1.570796326794897
 41
0.66
 77
    0
 78
    0
 98
    0
  0
HATCH
  5
5C
100
AcDbEntity
  8
21 - Back Panel / Cutouts
  6
ByLayer
 62
  256
370
   -1
100
AcDbHatch
 10
0
 20
0
 30
0
210
0
220
0
230
1
  2
ansi31
 70
    0
 71
    0
 91
    1
 92
    0
 93
    4
 72
    1
 10
8.425199999999997
 20
139.3636
 11
8.425199999999997
 21
126.515
 72
    1
 10
8.425199999999997
 20
126.515
 11
87.2602
 21
126.515
 72
    1
 10
87.2602
 20
126.515
 11
87.2602
 21
139.3636
 72
    1
 10
87.2602
 20
139.3636
 11
8.425199999999997
 21
139.3636
 97
    0
 75
    0
 76
    1
 52
1.570796326794897
 41
0.66
 77
    0
 78
    0
 98
    0
  0
HATCH
  5
5D
100
AcDbEntity
  8
21 - Back Panel / Cutouts
  6
ByLayer
 62
  256
370
   -1
100
AcDbHatch
 10
0
 20
0
 30
0
210
0
220
0
230
1
  2
ansi31
 70
    0
 71
    0
 91
    1
 92
    0
 93
    1
 72
    2
 10
13.4252
 20
151.6638
 40
4
 50
0
 51
360
 73
    1
 97
    0
 75
    0
 76
    1
 52
1.570796326794897
 41
0.66
 77
    0
 78
    0
 98
    0
  0
HATCH
  5
5E
100
AcDbEntity
  8
21 - Back Panel / Cutouts
  6
ByLayer
 62
  256
370
   -1
100
AcDbHatch
 10
0
 20
0
 30
0
210
0
220
0
230
1
  2
ansi31
 70
    0
 71
    0
 91
    1
 92
    0
 93
   16
 72
    1
 10
31.62990000000001
 20
158.2678
 11
31.62990000000001
 21
156.6676
 72
    1
 10
31.62990000000001
 20
156.6676
 11
24.42899999999999
 21
156.6676
 72
    1
 10
24.42899999999999
 20
156.6676
 11
24.42899999999999
 21
154.4578
 72
    1
 10
24.42899999999999
 20
154.4578
 11
21.9271
 21
154.4578
 72
    1
 10
21.9271
 20
154.4578
 11
21.9271
 21
148.8698
 72
    1
 10
21.9271
 20
148.8698
 11
24.42899999999999
 21
148.8698
 72
    1
 10
24.42899999999999
 20
148.8698
 11
24.42899999999999
 21
146.66
 72
    1
 10
24.42899999999999
 20
146.66
 11
42.8186
 21
146.66
 72
    1
 10
42.8186
 20
146.66
 11
42.8186
 21
148.8698
 72
    1
 10
42.8186
 20
148.8698
 11
45.32050000000001
 21
148.8698
 72
    1
 10
45.32050000000001
 20
148.8698
 11
45.32050000000001
 21
154.4578
 72
    1
 10
45.32050000000001
 20
154.4578
 11
42.8186
 21
154.4578
 72
    1
 10
42.8186
 20
154.4578
 11
42.8186
 21
156.6676
 72
    1
 10
42.8186
 20
156.6676
 11
35.6177
 21
156.6676
 72
    1
 10
35.6177
 20
156.6676
 11
35.6177
 21
158.2678
 72
    1
 10
35.6177
 20
158.2678
 11
31.62990000000001
 21
158.2678
 97
    0
 75
    0
 76
    1
 52
1.570796326794897
 41
0.66
 77
    0
 78
    0
 98
    0
  0
HATCH
  5
5F
100
AcDbEntity
  8
10 / West Cove Board / PCB
  6
ByLayer
 62
  256
370
   -1
100
AcDbHatch
 10
0
 20
0
 30
0
210
0
220
0
230
1
  2
ansi31
 70
    0
 71
    0
 91
    1
 92
    0
 93
    4
 72
    1
 10
92.9828
 20
16.6602
 11
3.982799999999997
 21
16.6602
 72
    1
 10
3.982799999999997
 20
16.6602
 11
3.982799999999997
 21
18.2602
 72
    1
 10
3.982799999999997
 20
18.2602
 11
92.9828
 21
18.2602
 72
    1
 10
92.9828
 20
18.2602
 11
92.9828
 21
16.6602
 97
    0
 75
    0
 76
    1
 52
0
 41
0.33
 77
    0
 78
    0
 98
    0
  0
HATCH
  5
60
100
AcDbEntity
  8
00 / PCIe Card / PCB
  6
ByLayer
 62
  256
370
   -1
100
AcDbHatch
 10
0
 20
0
 30
0
210
0
220
0
230
1
  2
ansi31
 70
    0
 71
    0
 91
    1
 92
    0
 93
    4
 72
    1
 10
24.0302
 20
21.66379999999999
 11
22.4554
 21
21.66379999999999
 72
    1
 10
22.4554
 20
21.66379999999999
 11
22.4554
 21
132.8142
 72
    1
 10
22.4554
 20
132.8142
 11
24.0302
 21
132.8142
 72
    1
 10
24.0302
 20
132.8142
 11
24.0302
 21
21.66379999999999
 97
    0
 75
    0
 76
    1
 52
0
 41
0.33
 77
    0
 78
    0
 98
    0
  0
HATCH
  5
61
100
AcDbEntity
  8
00 / PCIe Card / PCB
  6
ByLayer
 62
  256
370
   -1
100
AcDbHatch
 10
0
 20
0
 30
0
210
0
220
0
230
1
  2
ansi31
 70
    0
 71
    0
 91
    1
 92
    0
 93
    4
 72
    1
 10
44.3502
 20
21.66379999999999
 11
42.7754
 21
21.66379999999999
 72
    1
 10
42.7754
 20
21.66379999999999
 11
42.7754
 21
132.8142
 72
    1
 10
42.7754
 20
132.8142
 11
44.3502
 21
132.8142
 72
    1
 10
44.3502
 20
132.8142
 11
44.3502
 21
21.66379999999999
 97
    0
 75
    0
 76
    1
 52
0
 41
0.33
 77
    0
 78
    0
 98
    0
  0
HATCH
  5
62
100
AcDbEntity
  8
00 / PCIe Card / PCB
  6
ByLayer
 62
  256
370
   -1
100
AcDbHatch
 10
0
 20
0
 30
0
210
0
220
0
230
1
  2
ansi31
 70
    0
 71
    0
 91
    1
 92
    0
 93
    4
 72
    1
 10
64.67019999999999
 20
21.66379999999999
 11
63.0954
 21
21.66379999999999
 72
    1
 10
63.0954
 20
21.66379999999999
 11
63.0954
 21
132.8142
 72
    1
 10
63.0954
 20
132.8142
 11
64.67019999999999
 21
132.8142
 72
    1
 10
64.67019999999999
 20
132.8142
 11
64.67019999999999
 21
21.66379999999999
 97
    0
 75
    0
 76
    1
 52
0
 41
0.33
 77
    0
 78
    0
 98
    0
  0
HATCH
  5
63
100
AcDbEntity
  8
00 / PCIe Card / PCB
  6
ByLayer
 62
  256
370
   -1
100
AcDbHatch
 10
0
 20
0
 30
0
210
0
220
0
230
1
  2
ansi31
 70
    0
 71
    0
 91
    1
 92
    0
 93
    4
 72
    1
 10
84.9902
 20
21.66379999999999
 11
83.41540000000001
 21
21.66379999999999
 72
    1
 10
83.41540000000001
 20
21.66379999999999
 11
83.41540000000001
 21
152.6638
 72
    1
 10
83.41540000000001
 20
152.6638
 11
84.9902
 21
152.6638
 72
    1
 10
84.9902
 20
152.6638
 11
84.9902
 21
21.66379999999999
 97
    0
 75
    0
 76
    1
 52
0
 41
0.33
 77
    0
 78
    0
 98
    0
  0
HATCH
  5
64
100
AcDbEntity
  8
11 / West Cove Board / PCIe Slot
  6
ByLayer
 62
  256
370
   -1
100
AcDbHatch
 10
0
 20
0
 30
0
210
0
220
0
230
1
  2
ansi31
 70
    0
 71
    0
 91
    1
 92
    0
 93
    8
 72
    1
 10
19.4963
 20
29.51240000000001
 11
22.4554
 21
29.51240000000001
 72
    1
 10
22.4554
 20
29.51240000000001
 11
22.4554
 21
21.66379999999999
 72
    1
 10
22.4554
 20
21.66379999999999
 11
24.0302
 21
21.66379999999999
 72
    1
 10
24.0302
 20
21.66379999999999
 11
24.0302
 21
29.51240000000001
 72
    1
 10
24.0302
 20
29.51240000000001
 11
26.9893
 21
29.51240000000001
 72
    1
 10
26.9893
 20
29.51240000000001
 11
26.9893
 21
18.2602
 72
    1
 10
26.9893
 20
18.2602
 11
19.4963
 21
18.2602
 72
    1
 10
19.4963
 20
18.2602
 11
19.4963
 21
29.51240000000001
 97
    0
 75
    0
 76
    1
 52
1.570796326794897
 41
0.33
 77
    0
 78
    0
 98
    0
  0
HATCH
  5
65
100
AcDbEntity
  8
11 / West Cove Board / PCIe Slot
  6
ByLayer
 62
  256
370
   -1
100
AcDbHatch
 10
0
 20
0
 30
0
210
0
220
0
230
1
  2
ansi31
 70
    0
 71
    0
 91
    1
 92
    0
 93
    8
 72
    1
 10
39.8163
 20
29.51240000000001
 11
42.7754
 21
29.51240000000001
 72
    1
 10
42.7754
 20
29.51240000000001
 11
42.7754
 21
21.66379999999999
 72
    1
 10
42.7754
 20
21.66379999999999
 11
44.3502
 21
21.66379999999999
 72
    1
 10
44.3502
 20
21.66379999999999
 11
44.3502
 21
29.51240000000001
 72
    1
 10
44.3502
 20
29.51240000000001
 11
47.3093
 21
29.51240000000001
 72
    1
 10
47.3093
 20
29.51240000000001
 11
47.3093
 21
18.2602
 72
    1
 10
47.3093
 20
18.2602
 11
39.8163
 21
18.2602
 72
    1
 10
39.8163
 20
18.2602
 11
39.8163
 21
29.51240000000001
 97
    0
 75
    0
 76
    1
 52
1.570796326794897
 41
0.33
 77
    0
 78
    0
 98
    0
  0
HATCH
  5
66
100
AcDbEntity
  8
11 / West Cove Board / PCIe Slot
  6
ByLayer
 62
  256
370
   -1
100
AcDbHatch
 10
0
 20
0
 30
0
210
0
220
0
230
1
  2
ansi31
 70
    0
 71
    0
 91
    1
 92
    0
 93
    8
 72
    1
 10
60.1363
 20
29.51240000000001
 11
63.0954
 21
29.51240000000001
 72
    1
 10
63.0954
 20
29.51240000000001
 11
63.0954
 21
21.66379999999999
 72
    1
 10
63.0954
 20
21.66379999999999
 11
64.67019999999999
 21
21.66379999999999
 72
    1
 10
64.67019999999999
 20
21.66379999999999
 11
64.67019999999999
 21
29.51240000000001
 72
    1
 10
64.67019999999999
 20
29.51240000000001
 11
67.6293
 21
29.51240000000001
 72
    1
 10
67.6293
 20
29.51240000000001
 11
67.6293
 21
18.2602
 72
    1
 10
67.6293
 20
18.2602
 11
60.1363
 21
18.2602
 72
    1
 10
60.1363
 20
18.2602
 11
60.1363
 21
29.51240000000001
 97
    0
 75
    0
 76
    1
 52
1.570796326794897
 41
0.33
 77
    0
 78
    0
 98
    0
  0
HATCH
  5
67
100
AcDbEntity
  8
11 / West Cove Board / PCIe Slot
  6
ByLayer
 62
  256
370
   -1
100
AcDbHatch
 10
0
 20
0
 30
0
210
0
220
0
230
1
  2
ansi31
 70
    0
 71
    0
 91
    1
 92
    0
 93
    8
 72
    1
 10
80.4563
 20
29.51240000000001
 11
83.41540000000001
 21
29.51240000000001
 72
    1
 10
83.41540000000001
 20
29.51240000000001
 11
83.41540000000001
 21
21.66379999999999
 72
    1
 10
83.41540000000001
 20
21.66379999999999
 11
84.9902
 21
21.66379999999999
 72
    1
 10
84.9902
 20
21.66379999999999
 11
84.9902
 21
29.51240000000001
 72
    1
 10
84.9902
 20
29.51240000000001
 11
87.94929999999999
 21
29.51240000000001
 72
    1
 10
87.94929999999999
 20
29.51240000000001
 11
87.94929999999999
 21
18.2602
 72
    1
 10
87.94929999999999
 20
18.2602
 11
80.4563
 21
18.2602
 72
    1
 10
80.4563
 20
18.2602
 11
80.4563
 21
29.51240000000001
 97
    0
 75
    0
 76
    1
 52
1.570796326794897
 41
0.33
 77
    0
 78
    0
 98
    0
  0
HATCH
  5
68
100
AcDbEntity
  8
01 / PCIe Card / Bracket
  6
ByLayer
 62
  256
370
   -1
100
AcDbHatch
 10
0
 20
0
 30
0
210
0
220
0
230
1
  2
ansi31
 70
    0
 71
    0
 91
    1
 92
    0
 93
    4
 72
    1
 10
22.1252
 20
26.46440000000001
 11
10.0602
 21
26.46440000000001
 72
    1
 10
10.0602
 20
26.46440000000001
 11
10.0602
 21
116.355
 72
    1
 10
10.0602
 20
116.355
 11
22.1252
 21
116.355
 72
    1
 10
22.1252
 20
116.355
 11
22.1252
 21
26.46440000000001
 97
    0
 75
    0
 76
    1
 52
0
 41
0.66
 77
    0
 78
    0
 98
    0
  0
HATCH
  5
69
100
AcDbEntity
  8
01 / PCIe Card / Bracket
  6
ByLayer
 62
  256
370
   -1
100
AcDbHatch
 10
0
 20
0
 30
0
210
0
220
0
230
1
  2
ansi31
 70
    0
 71
    0
 91
    1
 92
    0
 93
    4
 72
    1
 10
42.4452
 20
26.46440000000001
 11
30.3802
 21
26.46440000000001
 72
    1
 10
30.3802
 20
26.46440000000001
 11
30.3802
 21
116.355
 72
    1
 10
30.3802
 20
116.355
 11
42.4452
 21
116.355
 72
    1
 10
42.4452
 20
116.355
 11
42.4452
 21
26.46440000000001
 97
    0
 75
    0
 76
    1
 52
0
 41
0.66
 77
    0
 78
    0
 98
    0
  0
HATCH
  5
6A
100
AcDbEntity
  8
01 / PCIe Card / Bracket
  6
ByLayer
 62
  256
370
   -1
100
AcDbHatch
 10
0
 20
0
 30
0
210
0
220
0
230
1
  2
ansi31
 70
    0
 71
    0
 91
    1
 92
    0
 93
    4
 72
    1
 10
62.76519999999999
 20
26.46440000000001
 11
50.7002
 21
26.46440000000001
 72
    1
 10
50.7002
 20
26.46440000000001
 11
50.7002
 21
116.355
 72
    1
 10
50.7002
 20
116.355
 11
62.76519999999999
 21
116.355
 72
    1
 10
62.76519999999999
 20
116.355
 11
62.76519999999999
 21
26.46440000000001
 97
    0
 75
    0
 76
    1
 52
0
 41
0.66
 77
    0
 78
    0
 98
    0
  0
HATCH
  5
6B
100
AcDbEntity
  8
01 / PCIe Card / Bracket
  6
ByLayer
 62
  256
370
   -1
100
AcDbHatch
 10
0
 20
0
 30
0
210
0
220
0
230
1
  2
ansi31
 70
    0
 71
    0
 91
    1
 92
    0
 93
    4
 72
    1
 10
83.0852
 20
26.46440000000001
 11
71.0202
 21
26.46440000000001
 72
    1
 10
71.0202
 20
26.46440000000001
 11
71.0202
 21
116.355
 72
    1
 10
71.0202
 20
116.355
 11
83.0852
 21
116.355
 72
    1
 10
83.0852
 20
116.355
 11
83.0852
 21
26.46440000000001
 97
    0
 75
    0
 76
    1
 52
0
 41
0.66
 77
    0
 78
    0
 98
    0
  0
HATCH
  5
6C
100
AcDbEntity
  8
99 / Hardware
  6
ByLayer
 62
  256
370
   -1
100
AcDbHatch
 10
0
 20
0
 30
0
210
0
220
0
230
1
  2
ansi31
 70
    0
 71
    0
 91
    1
 92
    0
 93
    5
 72
    2
 10
66.89269999999999
 20
11.0801
 40
1.352550000000001
 50
0
 51
360
 73
    1
 72
    1
 10
62.92395
 20
7.111350000000003
 11
62.92395
 21
15.04885
 72
    1
 10
62.92395
 20
15.04885
 11
70.86144999999999
 21
15.04885
 72
    1
 10
70.86144999999999
 20
15.04885
 11
70.86144999999999
 21
7.111350000000003
 72
    1
 10
70.86144999999999
 20
7.111350000000003
 11
62.92395
 21
7.111350000000003
 97
    0
 75
    0
 76
    1
 52
0
 41
0.33
 77
    0
 78
    0
 98
    0
  0
HATCH
  5
6D
100
AcDbEntity
  8
99 / Hardware
  6
ByLayer
 62
  256
370
   -1
100
AcDbHatch
 10
0
 20
0
 30
0
210
0
220
0
230
1
  2
ansi31
 70
    0
 71
    0
 91
    1
 92
    0
 93
    5
 72
    2
 10
46.5727
 20
11.0801
 40
1.352550000000001
 50
0
 51
360
 73
    1
 72
    1
 10
42.60395
 20
7.111350000000003
 11
42.60395
 21
15.04885
 72
    1
 10
42.60395
 20
15.04885
 11
50.54145
 21
15.04885
 72
    1
 10
50.54145
 20
15.04885
 11
50.54145
 21
7.111350000000003
 72
    1
 10
50.54145
 20
7.111350000000003
 11
42.60395
 21
7.111350000000003
 97
    0
 75
    0
 76
    1
 52
0
 41
0.33
 77
    0
 78
    0
 98
    0
  0
HATCH
  5
6E
100
AcDbEntity
  8
99 / Hardware
  6
ByLayer
 62
  256
370
   -1
100
AcDbHatch
 10
0
 20
0
 30
0
210
0
220
0
230
1
  2
ansi31
 70
    0
 71
    0
 91
    1
 92
    0
 93
    5
 72
    2
 10
26.2527
 20
11.0801
 40
1.352550000000001
 50
0
 51
360
 73
    1
 72
    1
 10
22.28395
 20
7.111350000000003
 11
22.28395
 21
15.04885
 72
    1
 10
22.28395
 20
15.04885
 11
30.22145
 21
15.04885
 72
    1
 10
30.22145
 20
15.04885
 11
30.22145
 21
7.111350000000003
 72
    1
 10
30.22145
 20
7.111350000000003
 11
22.28395
 21
7.111350000000003
 97
    0
 75
    0
 76
    1
 52
0
 41
0.33
 77
    0
 78
    0
 98
    0
  0
HATCH
  5
6F
100
AcDbEntity
  8
99 / Hardware
  6
ByLayer
 62
  256
370
   -1
100
AcDbHatch
 10
0
 20
0
 30
0
210
0
220
0
230
1
  2
ansi31
 70
    0
 71
    0
 91
    1
 92
    0
 93
   37
 72
    2
 10
5
 20
5.000000000000014
 40
1.25
 50
0
 51
360
 73
    1
 72
    1
 10
10
 20
6.500000000000007
 11
9
 21
6.500000000000007
 72
    1
 10
9
 20
6.500000000000007
 11
9
 21
7.750000000000014
 72
    1
 10
9
 20
7.750000000000014
 11
7
 21
5.750000000000021
 72
    1
 10
7
 20
5.750000000000021
 11
7
 21
4.250000000000007
 72
    1
 10
7
 20
4.250000000000007
 11
9
 21
2.250000000000014
 72
    1
 10
9
 20
2.250000000000014
 11
9
 21
3.500000000000007
 72
    1
 10
9
 20
3.500000000000007
 11
10
 21
3.500000000000007
 72
    1
 10
10
 20
3.500000000000007
 11
10
 21
1.4210854715202e-14
 72
    1
 10
10
 20
1.4210854715202e-14
 11
6.5
 21
0
 72
    1
 10
6.5
 20
0
 11
6.5
 21
1
 72
    1
 10
6.5
 20
1
 11
7.75
 21
1
 72
    1
 10
7.75
 20
1
 11
5.75
 21
3.000000000000014
 72
    1
 10
5.75
 20
3.000000000000014
 11
4.25
 21
3.000000000000014
 72
    1
 10
4.25
 20
3.000000000000014
 11
2.25
 21
1
 72
    1
 10
2.25
 20
1
 11
3.5
 21
1
 72
    1
 10
3.5
 20
1
 11
3.5
 21
0
 72
    1
 10
3.5
 20
0
 11
0
 21
0
 72
    1
 10
0
 20
0
 11
0
 21
3.500000000000007
 72
    1
 10
0
 20
3.500000000000007
 11
1
 21
3.500000000000007
 72
    1
 10
1
 20
3.500000000000007
 11
1
 21
2.250000000000014
 72
    1
 10
1
 20
2.250000000000014
 11
3
 21
4.250000000000014
 72
    1
 10
3
 20
4.250000000000014
 11
3
 21
5.750000000000014
 72
    1
 10
3
 20
5.750000000000014
 11
1
 21
7.750000000000014
 72
    1
 10
1
 20
7.750000000000014
 11
1
 21
6.500000000000007
 72
    1
 10
1
 20
6.500000000000007
 11
0
 21
6.500000000000007
 72
    1
 10
0
 20
6.500000000000007
 11
0
 21
10.00000000000001
 72
    1
 10
0
 20
10.00000000000001
 11
3.5
 21
10.00000000000001
 72
    1
 10
3.5
 20
10.00000000000001
 11
3.5
 21
9.000000000000014
 72
    1
 10
3.5
 20
9.000000000000014
 11
2.25
 21
9.000000000000014
 72
    1
 10
2.25
 20
9.000000000000014
 11
4.25
 21
7.000000000000014
 72
    1
 10
4.25
 20
7.000000000000014
 11
5.75
 21
7.000000000000014
 72
    1
 10
5.75
 20
7.000000000000014
 11
7.75
 21
9.000000000000014
 72
    1
 10
7.75
 20
9.000000000000014
 11
6.5
 21
9.000000000000014
 72
    1
 10
6.5
 20
9.000000000000014
 11
6.5
 21
10.00000000000001
 72
    1
 10
6.5
 20
10.00000000000001
 11
10
 21
10.00000000000001
 72
    1
 10
10
 20
10.00000000000001
 11
10
 21
6.500000000000007
 97
    0
 75
    0
 76
    1
 52
0
 41
0.33
 77
    0
 78
    0
 98
    0
  0
HATCH
  5
70
100
AcDbEntity
  8
99 / Hardware
  6
ByLayer
 62
  256
370
   -1
100
AcDbHatch
 10
0
 20
0
 30
0
210
0
220
0
230
1
  2
ansi31
 70
    0
 71
    0
 91
    1
 92
    0
 93
    4
 72
    1
 10
85.1454
 20
5.500000000000007
 11
85.1454
 21
4.499999999999995
 72
    1
 10
85.1454
 20
4.499999999999995
 11
8
 21
4.499999999999995
 72
    1
 10
8
 20
4.499999999999995
 11
8
 21
5.500000000000007
 72
    1
 10
8
 20
5.500000000000007
 11
85.1454
 21
5.500000000000007
 97
    0
 75
    0
 76
    1
 52
0
 41
0.33
 77
    0
 78
    0
 98
    0
  0
HATCH
  5
71
100
AcDbEntity
  8
99 / Hardware
  6
ByLayer
 62
  256
370
   -1
100
AcDbHatch
 10
0
 20
0
 30
0
210
0
220
0
230
1
  2
ansi31
 70
    0
 71
    0
 91
    1
 92
    0
 93
   37
 72
    2
 10
88.1454
 20
5.000000000000002
 40
1.25
 50
0
 51
360
 73
    1
 72
    1
 10
93.1454
 20
6.499999999999995
 11
92.1454
 21
6.499999999999995
 72
    1
 10
92.1454
 20
6.499999999999995
 11
92.1454
 21
7.750000000000002
 72
    1
 10
92.1454
 20
7.750000000000002
 11
90.1454
 21
5.750000000000009
 72
    1
 10
90.1454
 20
5.750000000000009
 11
90.1454
 21
4.249999999999995
 72
    1
 10
90.1454
 20
4.249999999999995
 11
92.1454
 21
2.250000000000002
 72
    1
 10
92.1454
 20
2.250000000000002
 11
92.1454
 21
3.499999999999995
 72
    1
 10
92.1454
 20
3.499999999999995
 11
93.1454
 21
3.499999999999995
 72
    1
 10
93.1454
 20
3.499999999999995
 11
93.1454
 21
1.77635683940025e-15
 72
    1
 10
93.1454
 20
1.77635683940025e-15
 11
89.6454
 21
-1.332267629550188e-14
 72
    1
 10
89.6454
 20
-1.332267629550188e-14
 11
89.6454
 21
0.9999999999999867
 72
    1
 10
89.6454
 20
0.9999999999999867
 11
90.8954
 21
0.9999999999999867
 72
    1
 10
90.8954
 20
0.9999999999999867
 11
88.8954
 21
3.000000000000002
 72
    1
 10
88.8954
 20
3.000000000000002
 11
87.3954
 21
3.000000000000002
 72
    1
 10
87.3954
 20
3.000000000000002
 11
85.3954
 21
0.9999999999999867
 72
    1
 10
85.3954
 20
0.9999999999999867
 11
86.6454
 21
0.9999999999999867
 72
    1
 10
86.6454
 20
0.9999999999999867
 11
86.6454
 21
-1.332267629550188e-14
 72
    1
 10
86.6454
 20
-1.332267629550188e-14
 11
83.1454
 21
-1.332267629550188e-14
 72
    1
 10
83.1454
 20
-1.332267629550188e-14
 11
83.1454
 21
3.499999999999995
 72
    1
 10
83.1454
 20
3.499999999999995
 11
84.1454
 21
3.499999999999995
 72
    1
 10
84.1454
 20
3.499999999999995
 11
84.1454
 21
2.250000000000002
 72
    1
 10
84.1454
 20
2.250000000000002
 11
86.1454
 21
4.250000000000002
 72
    1
 10
86.1454
 20
4.250000000000002
 11
86.1454
 21
5.750000000000002
 72
    1
 10
86.1454
 20
5.750000000000002
 11
84.1454
 21
7.750000000000002
 72
    1
 10
84.1454
 20
7.750000000000002
 11
84.1454
 21
6.499999999999995
 72
    1
 10
84.1454
 20
6.499999999999995
 11
83.1454
 21
6.499999999999995
 72
    1
 10
83.1454
 20
6.499999999999995
 11
83.1454
 21
10
 72
    1
 10
83.1454
 20
10
 11
86.6454
 21
10
 72
    1
 10
86.6454
 20
10
 11
86.6454
 21
9.000000000000002
 72
    1
 10
86.6454
 20
9.000000000000002
 11
85.3954
 21
9.000000000000002
 72
    1
 10
85.3954
 20
9.000000000000002
 11
87.3954
 21
7.000000000000002
 72
    1
 10
87.3954
 20
7.000000000000002
 11
88.8954
 21
7.000000000000002
 72
    1
 10
88.8954
 20
7.000000000000002
 11
90.8954
 21
9.000000000000002
 72
    1
 10
90.8954
 20
9.000000000000002
 11
89.6454
 21
9.000000000000002
 72
    1
 10
89.6454
 20
9.000000000000002
 11
89.6454
 21
10
 72
    1
 10
89.6454
 20
10
 11
93.1454
 21
10
 72
    1
 10
93.1454
 20
10
 11
93.1454
 21
6.499999999999995
 97
    0
 75
    0
 76
    1
 52
0
 41
0.33
 77
    0
 78
    0
 98
    0
  0
HATCH
  5
72
100
AcDbEntity
  8
99 / Hardware
  6
ByLayer
 62
  256
370
   -1
100
AcDbHatch
 10
0
 20
0
 30
0
210
0
220
0
230
1
  2
ansi31
 70
    0
 71
    0
 91
    1
 92
    0
 93
   37
 72
    2
 10
5
 20
162.6638
 40
1.25
 50
0
 51
360
 73
    1
 72
    1
 10
5.75
 20
160.6638
 11
4.25
 21
160.6638
 72
    1
 10
4.25
 20
160.6638
 11
2.25
 21
158.6638
 72
    1
 10
2.25
 20
158.6638
 11
3.5
 21
158.6638
 72
    1
 10
3.5
 20
158.6638
 11
3.5
 21
157.6638
 72
    1
 10
3.5
 20
157.6638
 11
0
 21
157.6638
 72
    1
 10
0
 20
157.6638
 11
0
 21
161.1638
 72
    1
 10
0
 20
161.1638
 11
1
 21
161.1638
 72
    1
 10
1
 20
161.1638
 11
1
 21
159.9138
 72
    1
 10
1
 20
159.9138
 11
3
 21
161.9138
 72
    1
 10
3
 20
161.9138
 11
3
 21
163.4138
 72
    1
 10
3
 20
163.4138
 11
1
 21
165.4138
 72
    1
 10
1
 20
165.4138
 11
1
 21
164.1638
 72
    1
 10
1
 20
164.1638
 11
0
 21
164.1638
 72
    1
 10
0
 20
164.1638
 11
0
 21
167.6638
 72
    1
 10
0
 20
167.6638
 11
3.5
 21
167.6638
 72
    1
 10
3.5
 20
167.6638
 11
3.5
 21
166.6638
 72
    1
 10
3.5
 20
166.6638
 11
2.25
 21
166.6638
 72
    1
 10
2.25
 20
166.6638
 11
4.25
 21
164.6638
 72
    1
 10
4.25
 20
164.6638
 11
5.75
 21
164.6638
 72
    1
 10
5.75
 20
164.6638
 11
7.75
 21
166.6638
 72
    1
 10
7.75
 20
166.6638
 11
6.5
 21
166.6638
 72
    1
 10
6.5
 20
166.6638
 11
6.5
 21
167.6638
 72
    1
 10
6.5
 20
167.6638
 11
10
 21
167.6638
 72
    1
 10
10
 20
167.6638
 11
10
 21
164.1638
 72
    1
 10
10
 20
164.1638
 11
9
 21
164.1638
 72
    1
 10
9
 20
164.1638
 11
9
 21
165.4138
 72
    1
 10
9
 20
165.4138
 11
7
 21
163.4138
 72
    1
 10
7
 20
163.4138
 11
7
 21
161.9138
 72
    1
 10
7
 20
161.9138
 11
9
 21
159.9138
 72
    1
 10
9
 20
159.9138
 11
9
 21
161.1638
 72
    1
 10
9
 20
161.1638
 11
10
 21
161.1638
 72
    1
 10
10
 20
161.1638
 11
10
 21
157.6638
 72
    1
 10
10
 20
157.6638
 11
6.5
 21
157.6638
 72
    1
 10
6.5
 20
157.6638
 11
6.5
 21
158.6638
 72
    1
 10
6.5
 20
158.6638
 11
7.75
 21
158.6638
 72
    1
 10
7.75
 20
158.6638
 11
5.75
 21
160.6638
 97
    0
 75
    0
 76
    1
 52
0
 41
0.33
 77
    0
 78
    0
 98
    0
  0
HATCH
  5
73
100
AcDbEntity
  8
99 / Hardware
  6
ByLayer
 62
  256
370
   -1
100
AcDbHatch
 10
0
 20
0
 30
0
210
0
220
0
230
1
  2
ansi31
 70
    0
 71
    0
 91
    1
 92
    0
 93
   37
 72
    2
 10
88.1454
 20
162.6638
 40
1.25
 50
0
 51
360
 73
    1
 72
    1
 10
88.8954
 20
160.6638
 11
87.3954
 21
160.6638
 72
    1
 10
87.3954
 20
160.6638
 11
85.3954
 21
158.6638
 72
    1
 10
85.3954
 20
158.6638
 11
86.6454
 21
158.6638
 72
    1
 10
86.6454
 20
158.6638
 11
86.6454
 21
157.6638
 72
    1
 10
86.6454
 20
157.6638
 11
83.1454
 21
157.6638
 72
    1
 10
83.1454
 20
157.6638
 11
83.1454
 21
161.1638
 72
    1
 10
83.1454
 20
161.1638
 11
84.1454
 21
161.1638
 72
    1
 10
84.1454
 20
161.1638
 11
84.1454
 21
159.9138
 72
    1
 10
84.1454
 20
159.9138
 11
86.1454
 21
161.9138
 72
    1
 10
86.1454
 20
161.9138
 11
86.1454
 21
163.4138
 72
    1
 10
86.1454
 20
163.4138
 11
84.1454
 21
165.4138
 72
    1
 10
84.1454
 20
165.4138
 11
84.1454
 21
164.1638
 72
    1
 10
84.1454
 20
164.1638
 11
83.1454
 21
164.1638
 72
    1
 10
83.1454
 20
164.1638
 11
83.1454
 21
167.6638
 72
    1
 10
83.1454
 20
167.6638
 11
86.6454
 21
167.6638
 72
    1
 10
86.6454
 20
167.6638
 11
86.6454
 21
166.6638
 72
    1
 10
86.6454
 20
166.6638
 11
85.3954
 21
166.6638
 72
    1
 10
85.3954
 20
166.6638
 11
87.3954
 21
164.6638
 72
    1
 10
87.3954
 20
164.6638
 11
88.8954
 21
164.6638
 72
    1
 10
88.8954
 20
164.6638
 11
90.8954
 21
166.6638
 72
    1
 10
90.8954
 20
166.6638
 11
89.6454
 21
166.6638
 72
    1
 10
89.6454
 20
166.6638
 11
89.6454
 21
167.6638
 72
    1
 10
89.6454
 20
167.6638
 11
93.1454
 21
167.6638
 72
    1
 10
93.1454
 20
167.6638
 11
93.1454
 21
164.1638
 72
    1
 10
93.1454
 20
164.1638
 11
92.1454
 21
164.1638
 72
    1
 10
92.1454
 20
164.1638
 11
92.1454
 21
165.4138
 72
    1
 10
92.1454
 20
165.4138
 11
90.1454
 21
163.4138
 72
    1
 10
90.1454
 20
163.4138
 11
90.1454
 21
161.9138
 72
    1
 10
90.1454
 20
161.9138
 11
92.1454
 21
159.9138
 72
    1
 10
92.1454
 20
159.9138
 11
92.1454
 21
161.1638
 72
    1
 10
92.1454
 20
161.1638
 11
93.1454
 21
161.1638
 72
    1
 10
93.1454
 20
161.1638
 11
93.1454
 21
157.6638
 72
    1
 10
93.1454
 20
157.6638
 11
89.6454
 21
157.6638
 72
    1
 10
89.6454
 20
157.6638
 11
89.6454
 21
158.6638
 72
    1
 10
89.6454
 20
158.6638
 11
90.8954
 21
158.6638
 72
    1
 10
90.8954
 20
158.6638
 11
88.8954
 21
160.6638
 97
    0
 75
    0
 76
    1
 52
0
 41
0.33
 77
    0
 78
    0
 98
    0
  0
LINE
  5
74
100
AcDbEntity
  8
01 / PCIe Card / Bracket
  6
ByLayer
 62
  256
370
   -1
100
AcDbLine
 10
9.425199999999997
 20
126.515
 11
28.4752
 21
126.515
  0
LWPOLYLINE
  5
75
100
AcDbEntity
  8
01 / PCIe Card / Bracket
  6
ByLayer
 62
  256
370
   -1
100
AcDbPolyline
 90
    4
 70
    1
 43
0
 10
10.0602
 20
116.355
 10
22.1252
 20
116.355
 10
22.1252
 20
26.46440000000001
 10
10.0602
 20
26.46440000000001
  0
LWPOLYLINE
  5
76
100
AcDbEntity
  8
00 / PCIe Card / PCB
  6
ByLayer
 62
  256
370
   -1
100
AcDbPolyline
 90
    4
 70
    1
 43
0
 10
22.4554
 20
132.8142
 10
24.0302
 20
132.8142
 10
24.0302
 20
21.66379999999999
 10
22.4554
 20
21.66379999999999
  0
LWPOLYLINE
  5
77
100
AcDbEntity
  8
11 / West Cove Board / PCIe Slot
  6
ByLayer
 62
  256
370
   -1
100
AcDbPolyline
 90
    8
 70
    1
 43
0
 10
26.9893
 20
18.2602
 10
19.4963
 20
18.2602
 10
19.4963
 20
29.51240000000001
 10
22.4554
 20
29.51240000000001
 10
22.4554
 20
21.66379999999999
 10
24.0302
 20
21.66379999999999
 10
24.0302
 20
29.51240000000001
 10
26.9893
 20
29.51240000000001
  0
LWPOLYLINE
  5
78
100
AcDbEntity
  8
01 / PCIe Card / Bracket
  6
ByLayer
 62
  256
370
   -1
100
AcDbPolyline
 90
   12
 70
    1
 43
0
 10
9.425199999999997
 20
123.4416
 10
6.8852
 20
120.9016
 10
6.8852
 20
17.87920000000001
 10
11
 20
13.76440000000001
 10
11
 20
6.500000000000007
 10
21.1854
 20
6.500000000000007
 10
21.1854
 20
13.76440000000001
 10
25.3002
 20
17.87920000000001
 10
25.3002
 20
120.2666
 10
28.4752
 20
123.4416
 10
28.4752
 20
127.3786
 10
9.425199999999997
 20
127.3786
  0
LINE
  5
79
100
AcDbEntity
  8
01 / PCIe Card / Bracket
  6
ByLayer
 62
  256
370
   -1
100
AcDbLine
 10
29.7452
 20
126.515
 11
48.7952
 21
126.515
  0
LWPOLYLINE
  5
7A
100
AcDbEntity
  8
01 / PCIe Card / Bracket
  6
ByLayer
 62
  256
370
   -1
100
AcDbPolyline
 90
    4
 70
    1
 43
0
 10
30.3802
 20
116.355
 10
42.4452
 20
116.355
 10
42.4452
 20
26.46440000000001
 10
30.3802
 20
26.46440000000001
  0
LWPOLYLINE
  5
7B
100
AcDbEntity
  8
00 / PCIe Card / PCB
  6
ByLayer
 62
  256
370
   -1
100
AcDbPolyline
 90
    4
 70
    1
 43
0
 10
42.7754
 20
132.8142
 10
44.3502
 20
132.8142
 10
44.3502
 20
21.66379999999999
 10
42.7754
 20
21.66379999999999
  0
LWPOLYLINE
  5
7C
100
AcDbEntity
  8
11 / West Cove Board / PCIe Slot
  6
ByLayer
 62
  256
370
   -1
100
AcDbPolyline
 90
    8
 70
    1
 43
0
 10
47.3093
 20
18.2602
 10
39.8163
 20
18.2602
 10
39.8163
 20
29.51240000000001
 10
42.7754
 20
29.51240000000001
 10
42.7754
 20
21.66379999999999
 10
44.3502
 20
21.66379999999999
 10
44.3502
 20
29.51240000000001
 10
47.3093
 20
29.51240000000001
  0
LWPOLYLINE
  5
7D
100
AcDbEntity
  8
01 / PCIe Card / Bracket
  6
ByLayer
 62
  256
370
   -1
100
AcDbPolyline
 90
   12
 70
    1
 43
0
 10
29.7452
 20
123.4416
 10
27.2052
 20
120.9016
 10
27.2052
 20
17.87920000000001
 10
31.32
 20
13.76440000000001
 10
31.32
 20
6.500000000000007
 10
41.5054
 20
6.500000000000007
 10
41.5054
 20
13.76440000000001
 10
45.6202
 20
17.87920000000001
 10
45.6202
 20
120.2666
 10
48.7952
 20
123.4416
 10
48.7952
 20
127.3786
 10
29.7452
 20
127.3786
  0
LINE
  5
7E
100
AcDbEntity
  8
01 / PCIe Card / Bracket
  6
ByLayer
 62
  256
370
   -1
100
AcDbLine
 10
50.0652
 20
126.515
 11
69.1152
 21
126.515
  0
LWPOLYLINE
  5
7F
100
AcDbEntity
  8
01 / PCIe Card / Bracket
  6
ByLayer
 62
  256
370
   -1
100
AcDbPolyline
 90
    4
 70
    1
 43
0
 10
50.7002
 20
116.355
 10
62.76519999999999
 20
116.355
 10
62.76519999999999
 20
26.46440000000001
 10
50.7002
 20
26.46440000000001
  0
LWPOLYLINE
  5
80
100
AcDbEntity
  8
00 / PCIe Card / PCB
  6
ByLayer
 62
  256
370
   -1
100
AcDbPolyline
 90
    4
 70
    1
 43
0
 10
63.0954
 20
132.8142
 10
64.67019999999999
 20
132.8142
 10
64.67019999999999
 20
21.66379999999999
 10
63.0954
 20
21.66379999999999
  0
LWPOLYLINE
  5
81
100
AcDbEntity
  8
11 / West Cove Board / PCIe Slot
  6
ByLayer
 62
  256
370
   -1
100
AcDbPolyline
 90
    8
 70
    1
 43
0
 10
67.6293
 20
18.2602
 10
60.1363
 20
18.2602
 10
60.1363
 20
29.51240000000001
 10
63.0954
 20
29.51240000000001
 10
63.0954
 20
21.66379999999999
 10
64.67019999999999
 20
21.66379999999999
 10
64.67019999999999
 20
29.51240000000001
 10
67.6293
 20
29.51240000000001
  0
LWPOLYLINE
  5
82
100
AcDbEntity
  8
01 / PCIe Card / Bracket
  6
ByLayer
 62
  256
370
   -1
100
AcDbPolyline
 90
   12
 70
    1
 43
0
 10
50.0652
 20
123.4416
 10
47.5252
 20
120.9016
 10
47.5252
 20
17.87920000000001
 10
51.64
 20
13.76440000000001
 10
51.64
 20
6.500000000000007
 10
61.8254
 20
6.500000000000007
 10
61.8254
 20
13.76440000000001
 10
65.9402
 20
17.87920000000001
 10
65.9402
 20
120.2666
 10
69.1152
 20
123.4416
 10
69.1152
 20
127.3786
 10
50.0652
 20
127.3786
  0
LINE
  5
83
100
AcDbEntity
  8
01 / PCIe Card / Bracket
  6
ByLayer
 62
  256
370
   -1
100
AcDbLine
 10
70.3852
 20
126.515
 11
89.43520000000001
 21
126.515
  0
LWPOLYLINE
  5
84
100
AcDbEntity
  8
01 / PCIe Card / Bracket
  6
ByLayer
 62
  256
370
   -1
100
AcDbPolyline
 90
    4
 70
    1
 43
0
 10
71.0202
 20
116.355
 10
83.0852
 20
116.355
 10
83.0852
 20
26.46440000000001
 10
71.0202
 20
26.46440000000001
  0
LWPOLYLINE
  5
85
100
AcDbEntity
  8
11 / West Cove Board / PCIe Slot
  6
ByLayer
 62
  256
370
   -1
100
AcDbPolyline
 90
    8
 70
    1
 43
0
 10
87.94929999999999
 20
18.2602
 10
80.4563
 20
18.2602
 10
80.4563
 20
29.51240000000001
 10
83.41540000000001
 20
29.51240000000001
 10
83.41540000000001
 20
21.66379999999999
 10
84.9902
 20
21.66379999999999
 10
84.9902
 20
29.51240000000001
 10
87.94929999999999
 20
29.51240000000001
  0
LWPOLYLINE
  5
86
100
AcDbEntity
  8
01 / PCIe Card / Bracket
  6
ByLayer
 62
  256
370
   -1
100
AcDbPolyline
 90
   12
 70
    1
 43
0
 10
70.3852
 20
123.4416
 10
67.84520000000001
 20
120.9016
 10
67.84520000000001
 20
17.87920000000001
 10
71.96000000000001
 20
13.76440000000001
 10
71.96000000000001
 20
6.500000000000007
 10
82.1454
 20
6.500000000000007
 10
82.1454
 20
13.76440000000001
 10
86.2602
 20
17.87920000000001
 10
86.2602
 20
120.2666
 10
89.43520000000001
 20
123.4416
 10
89.43520000000001
 20
127.3786
 10
70.3852
 20
127.3786
  0
LWPOLYLINE
  5
87
100
AcDbEntity
  8
10 / West Cove Board / PCB
  6
ByLayer
 62
  256
370
   -1
100
AcDbPolyline
 90
    4
 70
    1
 43
0
 10
3.982799999999997
 20
18.2602
 10
92.9828
 20
18.2602
 10
92.9828
 20
16.6602
 10
3.982799999999997
 20
16.6602
  0
LWPOLYLINE
  5
88
100
AcDbEntity
  8
00 / PCIe Card / PCB
  6
ByLayer
 62
  256
370
   -1
100
AcDbPolyline
 90
    4
 70
    1
 43
0
 10
83.41540000000001
 20
152.6638
 10
84.9902
 20
152.6638
 10
84.9902
 20
21.66379999999999
 10
83.41540000000001
 20
21.66379999999999
  0
CIRCLE
  5
89
100
AcDbEntity
  8
02 / PCIe Card / Bracket (Top)
  6
ByLayer
 62
  256
370
   -1
100
AcDbCircle
 10
25.3002
 20
133.4586
 40
0.5
  0
LINE
  5
8A
100
AcDbEntity
  8
02 / PCIe Card / Bracket (Top)
  6
ByLayer
 62
  256
370
   -1
100
AcDbLine
 10
24.3002
 20
133.4586
 11
26.3002
 21
133.4586
  0
LINE
  5
8B
100
AcDbEntity
  8
02 / PCIe Card / Bracket (Top)
  6
ByLayer
 62
  256
370
   -1
100
AcDbLine
 10
25.3002
 20
134.4586
 11
25.3002
 21
132.4586
  0
LWPOLYLINE
  5
8C
100
AcDbEntity
  8
02 / PCIe Card / Bracket (Top)
  6
ByLayer
 62
  256
370
   -1
100
AcDbPolyline
 90
    8
 70
    1
 43
0
 10
25.0462
 20
139.8086
 10
20.8552
 20
135.6176
 10
17.80720000000002
 20
135.6176
 10
13.61620000000002
 20
139.8086
 10
9.425199999999997
 20
139.8086
 10
9.425199999999997
 20
128.3786
 10
28.4752
 20
128.3786
 10
28.4752
 20
139.8086
  0
CIRCLE
  5
8D
100
AcDbEntity
  8
02 / PCIe Card / Bracket (Top)
  6
ByLayer
 62
  256
370
   -1
100
AcDbCircle
 10
45.6202
 20
133.4586
 40
0.5
  0
LINE
  5
8E
100
AcDbEntity
  8
02 / PCIe Card / Bracket (Top)
  6
ByLayer
 62
  256
370
   -1
100
AcDbLine
 10
44.6202
 20
133.4586
 11
46.6202
 21
133.4586
  0
LINE
  5
8F
100
AcDbEntity
  8
02 / PCIe Card / Bracket (Top)
  6
ByLayer
 62
  256
370
   -1
100
AcDbLine
 10
45.6202
 20
134.4586
 11
45.6202
 21
132.4586
  0
LWPOLYLINE
  5
90
100
AcDbEntity
  8
02 / PCIe Card / Bracket (Top)
  6
ByLayer
 62
  256
370
   -1
100
AcDbPolyline
 90
    8
 70
    1
 43
0
 10
45.36620000000001
 20
139.8086
 10
41.1752
 20
135.6176
 10
38.12720000000002
 20
135.6176
 10
33.93620000000002
 20
139.8086
 10
29.7452
 20
139.8086
 10
29.7452
 20
128.3786
 10
48.7952
 20
128.3786
 10
48.7952
 20
139.8086
  0
CIRCLE
  5
91
100
AcDbEntity
  8
02 / PCIe Card / Bracket (Top)
  6
ByLayer
 62
  256
370
   -1
100
AcDbCircle
 10
65.9402
 20
133.4586
 40
0.5
  0
LINE
  5
92
100
AcDbEntity
  8
02 / PCIe Card / Bracket (Top)
  6
ByLayer
 62
  256
370
   -1
100
AcDbLine
 10
64.9402
 20
133.4586
 11
66.9402
 21
133.4586
  0
LINE
  5
93
100
AcDbEntity
  8
02 / PCIe Card / Bracket (Top)
  6
ByLayer
 62
  256
370
   -1
100
AcDbLine
 10
65.9402
 20
134.4586
 11
65.9402
 21
132.4586
  0
LWPOLYLINE
  5
94
100
AcDbEntity
  8
02 / PCIe Card / Bracket (Top)
  6
ByLayer
 62
  256
370
   -1
100
AcDbPolyline
 90
    8
 70
    1
 43
0
 10
65.6862
 20
139.8086
 10
61.4952
 20
135.6176
 10
58.44720000000002
 20
135.6176
 10
54.25620000000002
 20
139.8086
 10
50.0652
 20
139.8086
 10
50.0652
 20
128.3786
 10
69.1152
 20
128.3786
 10
69.1152
 20
139.8086
  0
CIRCLE
  5
95
100
AcDbEntity
  8
02 / PCIe Card / Bracket (Top)
  6
ByLayer
 62
  256
370
   -1
100
AcDbCircle
 10
86.2602
 20
133.4586
 40
0.5
  0
LINE
  5
96
100
AcDbEntity
  8
02 / PCIe Card / Bracket (Top)
  6
ByLayer
 62
  256
370
   -1
100
AcDbLine
 10
85.2602
 20
133.4586
 11
87.2602
 21
133.4586
  0
LINE
  5
97
100
AcDbEntity
  8
02 / PCIe Card / Bracket (Top)
  6
ByLayer
 62
  256
370
   -1
100
AcDbLine
 10
86.2602
 20
134.4586
 11
86.2602
 21
132.4586
  0
LWPOLYLINE
  5
98
100
AcDbEntity
  8
02 / PCIe Card / Bracket (Top)
  6
ByLayer
 62
  256
370
   -1
100
AcDbPolyline
 90
    8
 70
    1
 43
0
 10
86.00620000000001
 20
139.8086
 10
81.8152
 20
135.6176
 10
78.76720000000002
 20
135.6176
 10
74.57620000000003
 20
139.8086
 10
70.3852
 20
139.8086
 10
70.3852
 20
128.3786
 10
89.43520000000001
 20
128.3786
 10
89.43520000000001
 20
139.8086
  0
LINE
  5
99
100
AcDbEntity
  8
99 / Hardware
  6
DASHEDTINY
 62
  256
370
   -1
100
AcDbLine
 10
5
 20
5.500000000000007
 11
5
 21
4.500000000000007
  0
LINE
  5
9A
100
AcDbEntity
  8
99 / Hardware
  6
DASHEDTINY
 62
  256
370
   -1
100
AcDbLine
 10
4.5
 20
5.000000000000007
 11
5.5
 21
5.000000000000007
  0
CIRCLE
  5
9B
100
AcDbEntity
  8
99 / Hardware
  6
ByLayer
 62
  256
370
   -1
100
AcDbCircle
 10
5
 20
5.000000000000014
 40
1.25
  0
LINE
  5
9C
100
AcDbEntity
  8
99 / Hardware
  6
DASHEDTINY
 62
  256
370
   -1
100
AcDbLine
 10
88.1454
 20
5.499999999999995
 11
88.1454
 21
4.499999999999995
  0
LINE
  5
9D
100
AcDbEntity
  8
99 / Hardware
  6
DASHEDTINY
 62
  256
370
   -1
100
AcDbLine
 10
87.6454
 20
4.999999999999995
 11
88.6454
 21
4.999999999999995
  0
CIRCLE
  5
9E
100
AcDbEntity
  8
99 / Hardware
  6
ByLayer
 62
  256
370
   -1
100
AcDbCircle
 10
88.1454
 20
5.000000000000002
 40
1.25
  0
LWPOLYLINE
  5
9F
100
AcDbEntity
  8
99 / Hardware
  6
ByLayer
 62
  256
370
   -1
100
AcDbPolyline
 90
    4
 70
    1
 43
0
 10
8
 20
5.500000000000007
 10
85.1454
 20
5.500000000000007
 10
85.1454
 20
4.499999999999995
 10
8
 20
4.499999999999995
  0
LWPOLYLINE
  5
A0
100
AcDbEntity
  8
99 / Hardware
  6
ByLayer
 62
  256
370
   -1
100
AcDbPolyline
 90
   36
 70
    1
 43
0
 10
86.6454
 20
10
 10
86.6454
 20
9.000000000000002
 10
85.3954
 20
9.000000000000002
 10
87.3954
 20
7.000000000000002
 10
88.8954
 20
7.000000000000002
 10
90.8954
 20
9.000000000000002
 10
89.6454
 20
9.000000000000002
 10
89.6454
 20
10
 10
93.1454
 20
10
 10
93.1454
 20
6.499999999999995
 10
92.1454
 20
6.499999999999995
 10
92.1454
 20
7.750000000000002
 10
90.1454
 20
5.750000000000009
 10
90.1454
 20
4.249999999999995
 10
92.1454
 20
2.250000000000002
 10
92.1454
 20
3.499999999999995
 10
93.1454
 20
3.499999999999995
 10
93.1454
 20
1.77635683940025e-15
 10
89.6454
 20
-1.332267629550188e-14
 10
89.6454
 20
0.9999999999999867
 10
90.8954
 20
0.9999999999999867
 10
88.8954
 20
3.000000000000002
 10
87.3954
 20
3.000000000000002
 10
85.3954
 20
0.9999999999999867
 10
86.6454
 20
0.9999999999999867
 10
86.6454
 20
-1.332267629550188e-14
 10
83.1454
 20
-1.332267629550188e-14
 10
83.1454
 20
3.499999999999995
 10
84.1454
 20
3.499999999999995
 10
84.1454
 20
2.250000000000002
 10
86.1454
 20
4.250000000000002
 10
86.1454
 20
5.750000000000002
 10
84.1454
 20
7.750000000000002
 10
84.1454
 20
6.499999999999995
 10
83.1454
 20
6.499999999999995
 10
83.1454
 20
10
  0
LWPOLYLINE
  5
A1
100
AcDbEntity
  8
99 / Hardware
  6
ByLayer
 62
  256
370
   -1
100
AcDbPolyline
 90
   36
 70
    1
 43
0
 10
3.5
 20
10.00000000000001
 10
3.5
 20
9.000000000000014
 10
2.25
 20
9.000000000000014
 10
4.25
 20
7.000000000000014
 10
5.75
 20
7.000000000000014
 10
7.75
 20
9.000000000000014
 10
6.5
 20
9.000000000000014
 10
6.5
 20
10.00000000000001
 10
10
 20
10.00000000000001
 10
10
 20
6.500000000000007
 10
9
 20
6.500000000000007
 10
9
 20
7.750000000000014
 10
7
 20
5.750000000000021
 10
7
 20
4.250000000000007
 10
9
 20
2.250000000000014
 10
9
 20
3.500000000000007
 10
10
 20
3.500000000000007
 10
10
 20
1.4210854715202e-14
 10
6.5
 20
0
 10
6.5
 20
1
 10
7.75
 20
1
 10
5.75
 20
3.000000000000014
 10
4.25
 20
3.000000000000014
 10
2.25
 20
1
 10
3.5
 20
1
 10
3.5
 20
0
 10
0
 20
0
 10
0
 20
3.500000000000007
 10
1
 20
3.500000000000007
 10
1
 20
2.250000000000014
 10
3
 20
4.250000000000014
 10
3
 20
5.750000000000014
 10
1
 20
7.750000000000014
 10
1
 20
6.500000000000007
 10
0
 20
6.500000000000007
 10
0
 20
10.00000000000001
  0
CIRCLE
  5
A2
100
AcDbEntity
  8
99 / Hardware
  6
ByLayer
 62
  256
370
   -1
100
AcDbCircle
 10
26.2527
 20
11.0801
 40
1.352550000000001
  0
LINE
  5
A3
100
AcDbEntity
  8
99 / Hardware
  6
DASHEDTINY
 62
  256
370
   -1
100
AcDbLine
 10
26.2527
 20
11.5801
 11
26.2527
 21
10.5801
  0
LINE
  5
A4
100
AcDbEntity
  8
99 / Hardware
  6
DASHEDTINY
 62
  256
370
   -1
100
AcDbLine
 10
25.7527
 20
11.0801
 11
26.7527
 21
11.0801
  0
LWPOLYLINE
  5
A5
100
AcDbEntity
  8
99 / Hardware
  6
ByLayer
 62
  256
370
   -1
100
AcDbPolyline
 90
    4
 70
    1
 43
0
 10
22.28395
 20
15.04885
 10
30.22145
 20
15.04885
 10
30.22145
 20
7.111350000000003
 10
22.28395
 20
7.111350000000003
  0
CIRCLE
  5
A6
100
AcDbEntity
  8
99 / Hardware
  6
ByLayer
 62
  256
370
   -1
100
AcDbCircle
 10
46.5727
 20
11.0801
 40
1.352550000000001
  0
LINE
  5
A7
100
AcDbEntity
  8
99 / Hardware
  6
DASHEDTINY
 62
  256
370
   -1
100
AcDbLine
 10
46.5727
 20
11.5801
 11
46.5727
 21
10.5801
  0
LINE
  5
A8
100
AcDbEntity
  8
99 / Hardware
  6
DASHEDTINY
 62
  256
370
   -1
100
AcDbLine
 10
46.0727
 20
11.0801
 11
47.0727
 21
11.0801
  0
LWPOLYLINE
  5
A9
100
AcDbEntity
  8
99 / Hardware
  6
ByLayer
 62
  256
370
   -1
100
AcDbPolyline
 90
    4
 70
    1
 43
0
 10
42.60395
 20
15.04885
 10
50.54145
 20
15.04885
 10
50.54145
 20
7.111350000000003
 10
42.60395
 20
7.111350000000003
  0
CIRCLE
  5
AA
100
AcDbEntity
  8
99 / Hardware
  6
ByLayer
 62
  256
370
   -1
100
AcDbCircle
 10
66.89269999999999
 20
11.0801
 40
1.352550000000001
  0
LINE
  5
AB
100
AcDbEntity
  8
99 / Hardware
  6
DASHEDTINY
 62
  256
370
   -1
100
AcDbLine
 10
66.89269999999999
 20
11.5801
 11
66.89269999999999
 21
10.5801
  0
LINE
  5
AC
100
AcDbEntity
  8
99 / Hardware
  6
DASHEDTINY
 62
  256
370
   -1
100
AcDbLine
 10
66.39269999999999
 20
11.0801
 11
67.39269999999999
 21
11.0801
  0
LWPOLYLINE
  5
AD
100
AcDbEntity
  8
99 / Hardware
  6
ByLayer
 62
  256
370
   -1
100
AcDbPolyline
 90
    4
 70
    1
 43
0
 10
62.92395
 20
15.04885
 10
70.86144999999999
 20
15.04885
 10
70.86144999999999
 20
7.111350000000003
 10
62.92395
 20
7.111350000000003
  0
LINE
  5
AE
100
AcDbEntity
  8
99 / Hardware
  6
DASHEDTINY
 62
  256
370
   -1
100
AcDbLine
 10
5
 20
163.1638
 11
5
 21
162.1638
  0
LINE
  5
AF
100
AcDbEntity
  8
99 / Hardware
  6
DASHEDTINY
 62
  256
370
   -1
100
AcDbLine
 10
4.5
 20
162.6638
 11
5.5
 21
162.6638
  0
CIRCLE
  5
B0
100
AcDbEntity
  8
99 / Hardware
  6
ByLayer
 62
  256
370
   -1
100
AcDbCircle
 10
5
 20
162.6638
 40
1.25
  0
LINE
  5
B1
100
AcDbEntity
  8
99 / Hardware
  6
DASHEDTINY
 62
  256
370
   -1
100
AcDbLine
 10
88.1454
 20
163.1638
 11
88.1454
 21
162.1638
  0
LINE
  5
B2
100
AcDbEntity
  8
99 / Hardware
  6
DASHEDTINY
 62
  256
370
   -1
100
AcDbLine
 10
87.6454
 20
162.6638
 11
88.6454
 21
162.6638
  0
CIRCLE
  5
B3
100
AcDbEntity
  8
99 / Hardware
  6
ByLayer
 62
  256
370
   -1
100
AcDbCircle
 10
88.1454
 20
162.6638
 40
1.25
  0
LWPOLYLINE
  5
B4
100
AcDbEntity
  8
99 / Hardware
  6
ByLayer
 62
  256
370
   -1
100
AcDbPolyline
 90
   36
 70
    1
 43
0
 10
86.6454
 20
167.6638
 10
86.6454
 20
166.6638
 10
85.3954
 20
166.6638
 10
87.3954
 20
164.6638
 10
88.8954
 20
164.6638
 10
90.8954
 20
166.6638
 10
89.6454
 20
166.6638
 10
89.6454
 20
167.6638
 10
93.1454
 20
167.6638
 10
93.1454
 20
164.1638
 10
92.1454
 20
164.1638
 10
92.1454
 20
165.4138
 10
90.1454
 20
163.4138
 10
90.1454
 20
161.9138
 10
92.1454
 20
159.9138
 10
92.1454
 20
161.1638
 10
93.1454
 20
161.1638
 10
93.1454
 20
157.6638
 10
89.6454
 20
157.6638
 10
89.6454
 20
158.6638
 10
90.8954
 20
158.6638
 10
88.8954
 20
160.6638
 10
87.3954
 20
160.6638
 10
85.3954
 20
158.6638
 10
86.6454
 20
158.6638
 10
86.6454
 20
157.6638
 10
83.1454
 20
157.6638
 10
83.1454
 20
161.1638
 10
84.1454
 20
161.1638
 10
84.1454
 20
159.9138
 10
86.1454
 20
161.9138
 10
86.1454
 20
163.4138
 10
84.1454
 20
165.4138
 10
84.1454
 20
164.1638
 10
83.1454
 20
164.1638
 10
83.1454
 20
167.6638
  0
LWPOLYLINE
  5
B5
100
AcDbEntity
  8
99 / Hardware
  6
ByLayer
 62
  256
370
   -1
100
AcDbPolyline
 90
   36
 70
    1
 43
0
 10
3.5
 20
167.6638
 10
3.5
 20
166.6638
 10
2.25
 20
166.6638
 10
4.25
 20
164.6638
 10
5.75
 20
164.6638
 10
7.75
 20
166.6638
 10
6.5
 20
166.6638
 10
6.5
 20
167.6638
 10
10
 20
167.6638
 10
10
 20
164.1638
 10
9
 20
164.1638
 10
9
 20
165.4138
 10
7
 20
163.4138
 10
7
 20
161.9138
 10
9
 20
159.9138
 10
9
 20
161.1638
 10
10
 20
161.1638
 10
10
 20
157.6638
 10
6.5
 20
157.6638
 10
6.5
 20
158.6638
 10
7.75
 20
158.6638
 10
5.75
 20
160.6638
 10
4.25
 20
160.6638
 10
2.25
 20
158.6638
 10
3.5
 20
158.6638
 10
3.5
 20
157.6638
 10
0
 20
157.6638
 10
0
 20
161.1638
 10
1
 20
161.1638
 10
1
 20
159.9138
 10
3
 20
161.9138
 10
3
 20
163.4138
 10
1
 20
165.4138
 10
1
 20
164.1638
 10
0
 20
164.1638
 10
0
 20
167.6638
  0
LWPOLYLINE
  5
B6
100
AcDbEntity
  8
20 - Back Panel
  6
ByLayer
 62
  256
370
   -1
100
AcDbPolyline
 90
    4
 70
    1
 43
0
 10
0
 20
167.6638
 10
93.1454
 20
167.6638
 10
93.1454
 20
1.77635683940025e-15
 10
0
 20
1.77635683940025e-15
  0
LWPOLYLINE
  5
B7
100
AcDbEntity
  8
21 - Back Panel / Cutouts
  6
ByLayer
 62
  256
370
   -1
100
AcDbPolyline
 90
    4
 70
    1
 43
0
 10
23.1252
 20
117.355
 10
23.1252
 20
25.46440000000001
 10
9.060199999999996
 20
25.46440000000001
 10
9.060199999999996
 20
117.355
  0
LWPOLYLINE
  5
B8
100
AcDbEntity
  8
21 - Back Panel / Cutouts
  6
ByLayer
 62
  256
370
   -1
100
AcDbPolyline
 90
    4
 70
    1
 43
0
 10
43.4452
 20
117.355
 10
43.4452
 20
25.46440000000001
 10
29.3802
 20
25.46440000000001
 10
29.3802
 20
117.355
  0
LWPOLYLINE
  5
B9
100
AcDbEntity
  8
21 - Back Panel / Cutouts
  6
ByLayer
 62
  256
370
   -1
100
AcDbPolyline
 90
    4
 70
    1
 43
0
 10
84.08520000000001
 20
117.355
 10
84.08520000000001
 20
25.46440000000001
 10
49.7002
 20
25.46440000000001
 10
49.7002
 20
117.355
  0
LWPOLYLINE
  5
BA
100
AcDbEntity
  8
21 - Back Panel / Cutouts
  6
ByLayer
 62
  256
370
   -1
100
AcDbPolyline
 90
    4
 70
    1
 43
0
 10
87.2602
 20
139.3636
 10
8.425199999999997
 20
139.3636
 10
8.425199999999997
 20
126.515
 10
87.2602
 20
126.515
  0
CIRCLE
  5
BB
100
AcDbEntity
  8
21 - Back Panel / Cutouts
  6
ByLayer
 62
  256
370
   -1
100
AcDbCircle
 10
13.4252
 20
151.6638
 40
4
  0
LWPOLYLINE
  5
BC
100
AcDbEntity
  8
21 - Back Panel / Cutouts
  6
ByLayer
 62
  256
370
   -1
100
AcDbPolyline
 90
   16
 70
    1
 43
0
 10
42.8186
 20
148.8698
 10
45.32050000000001
 20
148.8698
 10
45.32050000000001
 20
154.4578
 10
42.8186
 20
154.4578
 10
42.8186
 20
156.6676
 10
35.6177
 20
156.6676
 10
35.6177
 20
158.2678
 10
31.62990000000001
 20
158.2678
 10
31.62990000000001
 20
156.6676
 10
24.42899999999999
 20
156.6676
 10
24.42899999999999
 20
154.4578
 10
21.9271
 20
154.4578
 10
21.9271
 20
148.8698
 10
24.42899999999999
 20
148.8698
 10
24.42899999999999
 20
146.66
 10
42.8186
 20
146.66
  0
LWPOLYLINE
  5
BD
100
AcDbEntity
  8
22 - Back Panel / Power Button Cutouts
  6
ByLayer
 62
  256
370
   -1
100
AcDbPolyline
 90
    4
 70
    1
 43
0
 10
8.425199999999998
 20
156.6638
 10
18.4252
 20
156.6638
 10
18.4252
 20
146.6638
 10
8.425199999999998
 20
146.6638
  0
LWPOLYLINE
  5
BE
100
AcDbEntity
  8
23 - Back Panel / Power Plug Cutouts
  6
ByLayer
 62
  256
370
   -1
100
AcDbPolyline
 90
    4
 70
    1
 43
0
 10
19.4252
 20
154.4578
 10
21.9271
 20
154.4578
 10
21.9271
 20
148.8698
 10
19.4252
 20
148.8698
  0
LWPOLYLINE
  5
BF
100
AcDbEntity
  8
23 - Back Panel / Power Plug Cutouts
  6
ByLayer
 62
  256
370
   -1
100
AcDbPolyline
 90
    4
 70
    1
 43
0
 10
45.32050000000001
 20
154.4578
 10
47.82240000000002
 20
154.4578
 10
47.82240000000002
 20
148.8698
 10
45.32050000000001
 20
148.8698
  0
LWPOLYLINE
  5
C0
100
AcDbEntity
  8
24 - Back Panel / MakerBeam Cutouts
  6
ByLayer
 62
  256
370
   -1
100
AcDbPolyline
 90
    4
 70
    1
 43
0
 10
0
 20
10
 10
10
 20
10
 10
10
 20
0
 10
0
 20
0
  0
LWPOLYLINE
  5
C1
100
AcDbEntity
  8
24 - Back Panel / MakerBeam Cutouts
  6
ByLayer
 62
  256
370
   -1
100
AcDbPolyline
 90
    4
 70
    1
 43
0
 10
0
 20
167.6638
 10
10
 20
167.6638
 10
10
 20
157.6638
 10
0
 20
157.6638
  0
LWPOLYLINE
  5
C2
100
AcDbEntity
  8
24 - Back Panel / MakerBeam Cutouts
  6
ByLayer
 62
  256
370
   -1
100
AcDbPolyline
 90
    4
 70
    1
 43
0
 10
83.1454
 20
167.6638
 10
93.1454
 20
167.6638
 10
93.1454
 20
157.6638
 10
83.1454
 20
157.6638
  0
LWPOLYLINE
  5
C3
100
AcDbEntity
  8
24 - Back Panel / MakerBeam Cutouts
  6
ByLayer
 62
  256
370
   -1
100
AcDbPolyline
 90
    4
 70
    1
 43
0
 10
83.1454
 20
9.999999999999986
 10
93.1454
 20
9.999999999999986
 10
93.1454
 20
-1.332267629550188e-14
 10
83.1454
 20
-1.332267629550188e-14
  0
CIRCLE
  5
C4
100
AcDbEntity
  8
25 - Back Panel / Screw Holes
  6
ByLayer
 62
  256
370
   -1
100
AcDbCircle
 10
5
 20
5.000000000000009
 40
1.6
  0
CIRCLE
  5
C5
100
AcDbEntity
  8
25 - Back Panel / Screw Holes
  6
ByLayer
 62
  256
370
   -1
100
AcDbCircle
 10
26.2527
 20
11.0801
 40
1.6
  0
CIRCLE
  5
C6
100
AcDbEntity
  8
25 - Back Panel / Screw Holes
  6
ByLayer
 62
  256
370
   -1
100
AcDbCircle
 10
46.5727
 20
11.0801
 40
1.6
  0
CIRCLE
  5
C7
100
AcDbEntity
  8
25 - Back Panel / Screw Holes
  6
ByLayer
 62
  256
370
   -1
100
AcDbCircle
 10
66.89269999999999
 20
11.0801
 40
1.6
  0
CIRCLE
  5
C8
100
AcDbEntity
  8
25 - Back Panel / Screw Holes
  6
ByLayer
 62
  256
370
   -1
100
AcDbCircle
 10
88.1454
 20
4.999999999999996
 40
1.6
  0
CIRCLE
  5
C9
100
AcDbEntity
  8
25 - Back Panel / Screw Holes
  6
ByLayer
 62
  256
370
   -1
100
AcDbCircle
 10
88.1454
 20
162.6638
 40
1.6
  0
CIRCLE
  5
CA
100
AcDbEntity
  8
25 - Back Panel / Screw Holes
  6
ByLayer
 62
  256
370
   -1
100
AcDbCircle
 10
5
 20
162.6638
 40
1.6
  0
LINE
  5
CB
100
AcDbEntity
  8
0
  6
ByLayer
 62
  256
370
   -1
100
AcDbLine
 10
1
 20
-10
 11
1
 21
-11
  0
LINE
  5
CC
100
AcDbEntity
  8
0
  6
ByLayer
 62
  256
370
   -1
100
AcDbLine
 10
1
 20
-10
 11
2
 21
-11
  0
LINE
  5
CD
100
AcDbEntity
  8
0
  6
ByLayer
 62
  256
370
   -1
100
AcDbLine
 10
1
 20
-10
 11
0
 21
-11
  0
LINE
  5
CE
100
AcDbEntity
  8
0
  6
ByLayer
 62
  256
370
   -1
100
AcDbLine
 10
0
 20
-11
 11
1
 21
-11
  0
LWPOLYLINE
  5
CF
100
AcDbEntity
  8
0
  6
ByLayer
 62
  256
370
   -1
100
AcDbPolyline
 90
    4
 70
    1
 43
0
 10
0
 20
-12.1
 10
1
 20
-12.1
 10
1
 20
-11.1
 10
0
 20
-11.1
  0
CIRCLE
  5
D0
100
AcDbEntity
  8
0
  6
ByLayer
 62
  256
370
   -1
100
AcDbCircle
 10
1.6
 20
-11.6
 40
0.5
  0
ENDSEC
  0
SECTION
  2
OBJECTS
  0
DICTIONARY
  5
C
330
0
100
AcDbDictionary
281
    1
  3
ACAD_GROUP
350
D
  0
DICTIONARY
  5
D
330
C
100
AcDbDictionary
281
    1
  0
PLOTSETTINGS
  5
D1
100
AcDbPlotSettings
  6
1x1
 40
0
 41
0
 42
0
 43
0
  0
ENDSEC
  0
EOF
